<svg xmlns="http://www.w3.org/2000/svg" xml:space="preserve" viewBox="0 0 148.34 163.43">
   <path
      fill="#263238"
      d="M57.421 39.261s-33.955-5.298-40.44-2.52c-6.487 2.78-8.618 12.772-8.618 12.772s-1.154 2.027 2.354 2.278c0 0-14.372 35.808-9.828 42.67 4.544 6.863 50.322 9.602 56.533 6.247 6.21-3.357 21.13-58.928 0-61.447z"
   ></path>
   <path
      fill="#e4897b"
      d="M77.421 73.38s4.494 10.437 5.508 11.887c1.015 1.45 23.382 11.741 23.382 11.741s2.71-.434 5.464 0c2.755.435 6.56 1.595 6.904 2.03.345.435-4.16 6.958-4.16 6.958s-8.937.555-10.044-2.984c0 0-22.416-8.323-25.025-10.498-2.61-2.175-9.857-15.075-9.857-15.075z"
   ></path>
   <path
      fill="#00b0d8"
      d="M70.991 50.536c4.2 2.503 10.781 29.475 12.193 32.672 1.413 3.197 18.581 10.989 18.581 10.989l-7.62 7.29s-17.366-7.69-19.558-9.888c-2.192-2.198-10.851-24.575-10.851-24.575z"
   ></path>
   <path
      fill="#263238"
      d="M69.591 112.16s70.828-10.17 74.567 5.37c3.953 16.434-52.917 27.516-86.907 28.676-33.99 1.158-43.769-6.308-38.308-48.308l45.853-.112z"
   ></path>
   <path
      d="M69.591 112.16s70.828-10.17 74.567 5.37c3.953 16.434-52.917 27.516-86.907 28.676-33.99 1.158-43.769-6.308-38.308-48.308l45.853-.112z"
      opacity=".2"
   ></path>
   <path
      fill="#00b0d8"
      d="M133.56 136.25a.218.218 0 0 1-.25-.013.174.174 0 0 1-.06-.21c.112-.378 1.237-3.647 2.376-3.99a.708.708 0 0 1 .678.199c.323.266.477.685.404 1.096a3.017 3.017 0 0 1-1.065 1.535c-.647.53-1.345.994-2.083 1.383zm.292-.627a4.875 4.875 0 0 0 2.422-2.334.742.742 0 0 0-.288-.748.244.244 0 0 0-.266-.078.763.763 0 0 0-.262.153 9.435 9.435 0 0 0-1.606 3.007z"
   ></path>
   <path
      fill="#00b0d8"
      d="M133.5 136.29a.185.185 0 0 1-.211-.062c-.106-.092-1.676-2.071-1.417-3.409.062-.335.257-.63.541-.819a.729.729 0 0 1 .906-.085c.821.58.721 3.23.318 4.235l-.029.1a.205.205 0 0 1-.108.04zm-.892-3.883a.833.833 0 0 0-.272.476c-.162.845.625 2.114 1.05 2.722.26-1.131.176-2.99-.305-3.325-.053-.027-.15-.104-.394.066z"
   ></path>
   <path
      fill="#e4897b"
      d="m109.164 134.06-.132 10.516 14.849.01 7.12.01.85-7.505-6.586-.879z"
   ></path>
   <path
      fill="#263238"
      d="m130.24 136.14-1.807 8.561a.865.865 0 0 0 .694 1.03l4.268.767s5.667 1.442 7.258.426c4.65-2.972 9.131-21.808 7.237-23.202-.693-.512-1.895.262-2.495.876-1.906 1.952-5.976 7.387-7.586 8.995-1.882 1.88-5.223 1.938-6.688 1.862a.859.859 0 0 0-.881.685z"
   ></path>
   <path opacity=".2" d="m109.164 134.06-.132 10.516 14.849.01 1.384-8.374z"></path>
   <path
      fill="#263238"
      d="M52.963 111.65v1.873c0 1.263 1.052 2.423 2.323 2.423h69.076c1.272 0 2.498-1.16 2.498-2.423v-1.873z"
   ></path>
   <path
      fill="#fff"
      opacity=".2"
      d="M52.963 111.65v1.873c0 1.263 1.052 2.423 2.323 2.423h69.076c1.272 0 2.498-1.16 2.498-2.423v-1.873z"
   ></path>
   <path
      fill="#fff"
      opacity=".2"
      d="M78.741 111.65v1.873c0 1.263 1.068 2.423 2.331 2.423h43.29c1.272 0 2.498-1.16 2.498-2.423v-1.873z"
   ></path>
   <path
      fill="#263238"
      d="M81.072 114.23h45.635c1.401 0 2.887-1.1 3.317-2.448l10.465-32.828c.43-1.35-.352-2.53-1.752-2.53H93.102c-1.401 0-2.887 1.181-3.317 2.53L79.319 111.74c-.43 1.348.353 2.49 1.753 2.49z"
   ></path>
   <g fill="#fff">
      <path
         opacity=".2"
         d="M81.072 114.23h45.635c1.401 0 2.887-1.1 3.317-2.448l10.465-32.828c.43-1.35-.352-2.53-1.752-2.53H93.102c-1.401 0-2.887 1.181-3.317 2.53L79.319 111.74c-.43 1.348.353 2.49 1.753 2.49z"
      ></path>
      <path
         opacity=".2"
         d="M82.791 114.23h43.917c1.401 0 2.887-1.1 3.317-2.448l10.465-32.828c.43-1.35-.352-2.53-1.752-2.53H94.82c-1.401 0-2.887 1.181-3.317 2.53L81.038 111.74c-.43 1.348.352 2.49 1.753 2.49z"
      ></path>
      <path
         opacity=".2"
         d="M109.49 96.831c-.564 2.187.525 3.96 2.43 3.96 1.906 0 3.907-1.772 4.47-3.96.563-2.187-.525-3.96-2.43-3.96-1.905 0-3.906 1.773-4.47 3.96zM130.24 136.14l-1.807 8.561a.865.865 0 0 0 .694 1.03l4.268.767s5.667 1.442 7.258.426c4.65-2.972 9.131-21.808 7.237-23.202-.693-.512-1.895.262-2.495.876-1.906 1.952-5.976 7.387-7.586 8.995-1.882 1.88-5.223 1.938-6.688 1.862a.859.859 0 0 0-.881.685z"
      ></path>
   </g>
   <g stroke-width=".99">
      <path
         d="m18.517 99.384 14.05-.303v4.768l-14.323.192zM66.648 103.404l-5.818.081v-5.02l4.283-.09zM34.77 103.829V99.03l24.232-.526v5z"
      ></path>
   </g>
   <path
      fill="#fff"
      d="m45.038 102.63-.072-1.946c-.04-1.084.756-2.001 1.773-2.044l4.383-.184c.488-.013.963.165 1.326.522.361.356.572.841.592 1.367l.071 1.946c.04 1.082-.755 2-1.772 2.043l-4.383.184-.073.002c-.985 0-1.806-.833-1.845-1.89zm6.27.885c.592-.025 1.056-.56 1.033-1.191l-.072-1.945a1.175 1.175 0 0 0-.345-.798 1.01 1.01 0 0 0-.773-.303l-4.383.183c-.593.025-1.056.56-1.033 1.191l.072 1.947c.023.632.514 1.13 1.118 1.1z"
   ></path>
   <path
      fill="#fff"
      d="M45.79 101.99h2.198a.505.505 0 0 0 0-1.01H45.79a.505.505 0 0 0 0 1.01z"
   ></path>
   <path
      fill="#00b0d8"
      d="M70.991 50.536s-5.526 34.932-3.218 47.425l-51.095 1.486s6.041-36.088 14.087-49.702c-.001-.001 13.347-22.287 40.226.79z"
   ></path>
   <path
      fill="#fff"
      d="M70.991 50.536s-5.526 34.932-3.218 47.425l-51.095 1.486s6.041-36.088 14.087-49.702c-.001-.001 13.347-22.287 40.226.79z"
      opacity=".6"
   ></path>
   <path
      fill="#e4897b"
      d="M41.014 42.754s8.475 8.28 13.369 6.928c4.904-1.342 6.733-3.843 6.733-3.843s-3.931-1.732-3.503-2.666c.049-.107.176-.302.35-.584 1.46-2.218 6.656-9.312 6.656-9.312l-11.15-6.246s-.915 2.15-2.033 4.72c-1.508 3.405-3.386 7.54-4.028 8.31-1.111 1.35-6.394 2.693-6.394 2.693z"
   ></path>
   <path
      d="M51.435 31.75c.7 3.931 2.413 8.572 6.53 10.839 1.459-2.218 6.654-9.312 6.654-9.312l-11.15-6.246s-.916 2.15-2.034 4.719z"
      opacity=".2"
   ></path>
   <path
      fill="#263238"
      d="M49.201 24.031s-1.116 3.534-.899 6.031c.218 2.498-2.58 3.342-2.93 1.821 0 0 .051 3.692 2.448 3.139 0 0-.013 2.55 2.142 2.592 0 0 3.009-3.868 2.681-8.657-.327-4.789-3.442-4.926-3.442-4.926zM68.4 11.78c-3.635 1.505-3.006 9.95 3.023 17.175 3.712-3.196 5.396-10.565 4.518-13.476-1.404-4.659-4.374-4.998-7.54-3.699z"
   ></path>
   <path
      fill="#e4897b"
      d="M73.698 32.34s0 .01-.01.026a25.297 25.297 0 0 1-1.159 2.837c-3.585 7.303-13.894 8.72-18.459 1.497-.018-.027-.035-.044-.053-.071-3.014-4.86-1.882-9.399-.624-17.264.249-1.668.882-3.247 1.855-4.628 3.442-4.914 10.21-6.11 15.124-2.667 5.984 4.156 5.626 13.555 3.326 20.27z"
   ></path>
   <path
      fill="#263238"
      d="M64.501 24.092c-.141.631.08 1.22.494 1.31.412.089.854-.342.996-.973.141-.63-.073-1.215-.482-1.313-.409-.099-.825.364-1.008.976zM71.675 25.711c-.141.631.08 1.22.494 1.31.412.089.863-.338 1.008-.978.144-.639-.08-1.219-.494-1.309-.412-.09-.867.346-1.008.977z"
   ></path>
   <path
      fill="#de5753"
      d="M69.267 25.484c.32 2.099.928 4.144 1.807 6.077-1.374.786-3.146-.117-3.146-.117z"
   ></path>
   <path
      fill="#263238"
      d="M63.048 21.389a.369.369 0 0 1-.224-.104.385.385 0 0 1 .037-.538 3.757 3.757 0 0 1 3.364-.854c.196.05.314.25.263.447l-.007.025a.393.393 0 0 1-.471.255 2.998 2.998 0 0 0-2.648.701.385.385 0 0 1-.314.068zM75.485 24.025a.393.393 0 0 1-.29-.287 3.023 3.023 0 0 0-1.712-2.145.384.384 0 0 1-.227-.49.385.385 0 0 1 .48-.23 3.793 3.793 0 0 1 2.195 2.692.375.375 0 0 1-.275.454l-.006.001a.432.432 0 0 1-.165.005z"
   ></path>
   <path
      fill="none"
      stroke="#263238"
      stroke-linecap="round"
      stroke-linejoin="round"
      stroke-miterlimit="10"
      stroke-width=".557"
      d="M61.817 31.529s.824 2.834 4.621 3.49"
   ></path>
   <path
      fill="#263238"
      d="M75.245 18.074s2.344-1.798 2.248-3.896c-.139-3.061-1.982-5.1-4.122-6.372-1.598-1.029-3.93-1.801-7.337-2.001-8.954-.528-13.825 2.159-15.358 6.944-.95 1.694-.927 4.84-.075 7.792l.01.055.004-.005c.507 1.731 1.291 3.389 2.339 4.63 5.446-4.732 7.48-8.072 6.626-10.3.174-.056 2.889-2.477 4.09-2.541 1.729-.093 4.936 1.553 7.536 3.1 1.422.845 2.888-.502 2.888-.502z"
   ></path>
   <path
      fill="#e4897b"
      d="M48.309 24.744a7.578 7.578 0 0 0 2.523 5.208c1.998 1.743 4.133.23 4.535-2.25.36-2.236-.25-5.84-2.713-6.628-2.461-.786-4.48 1.216-4.345 3.67z"
   ></path>
   <path
      fill="#00b0d8"
      d="M48.302 30.062s3.315-12.887 11.507-17.681c8.192-4.795 16.683-1.452 16.683-1.452s-.301-3.444-.55-3.843c-.25-.399-4.31-1.798-4.31-1.798S69.325 1.891 66.116.792c-3.21-1.099-12.813-1.399-16.152 1.4-3.34 2.796-5.572 8.491-4.157 8.591 1.415.1 2.496.1 2.496.1S45.66 20.03 46.79 21.4c0 0-1.966 6.365 1.512 8.663zM64.738 148.05a.22.22 0 0 1 .227-.105.173.173 0 0 1 .15.159c.079.385.604 3.802-.245 4.636a.71.71 0 0 1-.693.14 1.16 1.16 0 0 1-.867-.783 3.03 3.03 0 0 1 .228-1.854c.324-.77.726-1.505 1.2-2.193zm.032.69a4.867 4.867 0 0 0-1.056 3.194.74.74 0 0 0 .603.528c.093.04.202.018.273-.056a.764.764 0 0 0 .16-.256c.213-1.126.22-2.281.02-3.41z"
   ></path>
   <path
      fill="#e4897b"
      d="m66.497 138.263 1.566 7.384 6.535-1.253 15.95-3.04-3.203-10.02-14.08 4.676z"
   ></path>
   <path
      fill="#263238"
      d="m69.883 146.03-.993-8.694a.866.866 0 0 0-.984-.758l-4.29.622s-5.833.424-7.022 1.892c-3.471 4.29-1.766 23.576.471 24.3.82.265 1.714-.849 2.09-1.62 1.19-2.455 3.334-8.898 4.353-10.932 1.191-2.38 4.342-3.49 5.757-3.881a.857.857 0 0 0 .618-.93z"
   ></path>
   <path
      fill="#00b0d8"
      d="M64.771 147.98a.185.185 0 0 1 .216-.043c.137.03 2.448 1.054 2.841 2.357a1.26 1.26 0 0 1-.098.978.73.73 0 0 1-.762.497c-.996-.13-2.142-2.523-2.253-3.6l-.02-.102a.203.203 0 0 1 .076-.087zm2.597 3.022a.834.834 0 0 0 .02-.547c-.25-.824-1.538-1.581-2.198-1.92.298 1.122 1.237 2.729 1.82 2.8.059 0 .181.023.316-.241z"
   ></path>
   <g stroke-width=".99">
      <path opacity=".2" d="m74.598 144.394 15.95-3.04-3.203-10.02-14.08 4.676z"></path>
      <path fill="#00b0d8" d="m81.063 146.081-2.405-13.889-4.616 2.424 3 11.091z"></path>
      <path fill="#fff" opacity=".6" d="m81.063 146.081-2.405-13.889-4.616 2.424 3 11.091z"></path>
   </g>
   <path
      fill="#fff"
      opacity=".2"
      d="m69.883 146.03-.993-8.694a.866.866 0 0 0-.984-.758l-4.29.622s-5.833.424-7.022 1.892c-3.471 4.29-1.766 23.576.471 24.3.82.265 1.714-.849 2.09-1.62 1.19-2.455 3.334-8.898 4.353-10.932 1.191-2.38 4.342-3.49 5.757-3.881a.857.857 0 0 0 .618-.93z"
   ></path>
   <path
      fill="#263238"
      d="M122.52 135.11s-65.893-25.592-86.073-21.317c-20.179 4.276-20.274 14.838-10.045 24.682 10.228 9.845 25.515 6.052 25.515 6.052s-12.01-7.197-11.172-11.64 8.472 5.717 8.472 5.717 39.824 9.739 72.703 7.172z"
   ></path>
   <path fill="#00b0d8" d="m117.497 146.222 5.151-.838.677-11.333-3.697-1.697z"></path>
   <path fill="#fff" opacity=".6" d="m117.497 146.222 5.151-.838.677-11.333-3.697-1.697z"></path>
   <path
      fill="#00b0d8"
      d="M36.833 40.07s8.913 24.231 8.452 29.688c-.46 5.457-18.842 46.192-18.842 46.192l-15.184 6.104S14.414 62.14 36.833 40.07z"
   ></path>
   <path
      opacity=".2"
      d="M36.833 40.07s8.913 24.231 8.452 29.688c-.46 5.457-18.842 46.192-18.842 46.192l-15.184 6.104S14.414 62.14 36.833 40.07z"
   ></path>
   <path
      fill="#00b0d8"
      d="M69.016 110.44s-4.76-11.303-6.285-17.569c-1.524-6.266 3.803-38.434.94-49.223l7.32 6.888-3.107 40.184z"
   ></path>
   <path
      opacity=".2"
      d="M69.016 110.44s-4.76-11.303-6.285-17.569c-1.524-6.266 3.803-38.434.94-49.223l7.32 6.888-3.107 40.184z"
   ></path>
   <path
      fill="#263238"
      d="M14.952 92.871s31.6 6.074 26.605-51.667l-5.147-.453s3.135 21.94-2.628 36.293-19.37 13.675-19.37 13.675z"
   ></path>
   <path
      fill="#00b0d8"
      d="M45.1 67.222 34.493 42.589l-3.218 4.233s-.57-5.97 1.295-7.703c1.864-1.73 7.016.436 9.057.95 2.041.515 3.473 27.153 3.473 27.153z"
   ></path>
   <path
      fill="#263238"
      d="M61.817 44.026s4.094 12.109 3.43 31.089c-.665 18.98 2.74 17.399 2.74 17.399l.49-1.795s-1.914-.22-1.756-6.613c.157-6.394.988-32.2-1.476-38.977z"
   ></path>
   <path
      fill="#00b0d8"
      d="M63.957 66.522s.972-18.194-4.098-23.509c0 0 3.831-1.433 5.387 0 1.555 1.433 1.934 15.282-1.118 24.208"
   ></path>
   <path
      fill="#e4897b"
      d="M38.292 73.921s4.624 10.74 5.668 12.232c1.045 1.492 24.063 12.083 24.063 12.083s2.79-.447 5.623 0c2.834.447 6.75 1.641 7.104 2.089.354.447-4.28 7.16-4.28 7.16s-9.198.572-10.337-3.07c0 0-23.067-8.566-25.752-10.803-2.685-2.238-10.143-15.514-10.143-15.514z"
   ></path>
   <path
      fill="#00b0d8"
      d="M32.57 49.832c4.93.015 11.844 30.097 13.164 34.175 1.32 4.078 21.691 12.825 21.691 12.825l-6.492 7.689s-22.102-7.98-24.699-11.65c-2.597-3.669-10.466-24.58-10.827-29.41-.363-4.827 3.9-13.638 7.163-13.628z"
   ></path>
</svg>
