<svg xmlns="http://www.w3.org/2000/svg" xml:space="preserve" viewBox="0 0 418.5 100.82">
   <path
      fill="#00b0d8"
      d="M418.5 100.82V28.877c-2.2-1.16-4.67-1.879-7.33-1.879a15.798 15.798 0 0 0-12.4 5.992c-2.575-5.253-7.976-8.869-14.221-8.869-4.89 0-9.26 2.217-12.164 5.701-3.811-6.834-11.11-11.457-19.49-11.457-12.318 0-22.303 9.986-22.303 22.303 0 11.797 9.159 21.453 20.754 22.248-.405 8.236.846 26.353 2.369 37.904zM77.16 47.822c-8.885 0-16.25 6.507-17.59 15.016a16.654 16.654 0 0 0-10.471-3.684c-6.92 0-12.86 4.203-15.404 10.195a21.484 21.484 0 0 0-12.117-3.718C9.657 65.63-.008 75.293-.008 87.215c0 5.174 1.86 9.887 4.897 13.605h132.78l.474-24.938-13.088-10.613c.438-1.238.678-2.57.678-3.957 0-6.557-5.316-11.871-11.873-11.871-2.273 0-4.395.638-6.2 1.746a13.435 13.435 0 0 0-8.91-3.365 13.454 13.454 0 0 0-9.921 4.351 17.738 17.738 0 0 0-11.664-4.352z"
   ></path>
   <path
      fill="#57b6dd"
      d="M272.38 0c-18.776 0-33.998 15.222-33.998 33.998 0 3.252.458 6.397 1.31 9.375l-31.313 9.393c-1.276-5.498-6.203-9.594-12.088-9.594-2.246 0-4.35.599-6.168 1.642a20.406 20.406 0 0 0-11.1-3.261c-10.492 0-19.143 7.879-20.36 18.043a23.646 23.646 0 0 0-10.4-2.395c-11.141 0-20.49 7.676-23.048 18.027a12.467 12.467 0 0 0-2.315-.219c-6.609 0-12.01 5.166-12.389 11.68a7.014 7.014 0 0 0-9.195 6.668c0 1.923-1.156 4.815-2.733 7.461h281.37l-1.763-5.795a9.713 9.713 0 0 0-4.353-18.395c-.212 0-.421.01-.63.024-1.755-3.842-5.331-6.676-9.626-7.396v-.182c0-10.43-8.456-18.887-18.887-18.887-1.9 0-3.733.282-5.461.803.042-.532.064-1.07.064-1.613 0-11.176-9.06-20.236-20.236-20.236a20.157 20.157 0 0 0-12.688 4.47C306.166 15.013 291.028.001 272.38.001z"
   ></path>
</svg>
