<svg xmlns="http://www.w3.org/2000/svg" xml:space="preserve" viewBox="0 0 346.62 117.12">
   <path
      fill="none"
      stroke="#407bff"
      stroke-miterlimit="10"
      d="M46.325 24.616s6.072-6.933 12.988-2.05c6.916 4.884 13.77 40.816 13.77 40.816"
   ></path>
   <path
      fill="none"
      stroke="#407bff"
      stroke-miterlimit="10"
      d="M70.559 66.35s-2.451-24.698-10.533-32.389c-8.082-7.69-13.164 5.918-13.164 5.918"
   ></path>
   <path
      fill="#00b0d8"
      d="M65.346 26.853s4.563-.917 5.447 3c.886 3.917-7.597 16.477-7.597 16.477s-7.701-1.485-7.694-11.608c.006-10.123 8.319-10.123 9.844-7.87z"
   ></path>
   <path
      fill="#fff"
      opacity=".2"
      d="M65.346 26.853s4.563-.917 5.447 3c.886 3.917-7.597 16.477-7.597 16.477s-7.701-1.485-7.694-11.608c.006-10.123 8.319-10.123 9.844-7.87z"
   ></path>
   <path
      fill="#00b0d8"
      d="M53.556 34.49s1.844-2.04-.568-2.513c-2.412-.473-13.564 1.53-11.932 12.632 0 0 13.374.109 14.321-4.367.947-4.476-1.82-5.752-1.82-5.752z"
   ></path>
   <path
      fill="#fff"
      opacity=".2"
      d="M53.556 34.49s1.844-2.04-.568-2.513c-2.412-.473-13.564 1.53-11.932 12.632 0 0 13.374.109 14.321-4.367.947-4.476-1.82-5.752-1.82-5.752z"
   ></path>
   <path
      fill="#00b0d8"
      d="M70.728 15.453s-.513-2.044 1.29-1.496 8.629 5.921 3.524 12.847c0 0-9.09-4.744-8.119-8.115.973-3.37 3.305-3.236 3.305-3.236z"
   ></path>
   <path
      fill="#fff"
      opacity=".2"
      d="M70.728 15.453s-.513-2.044 1.29-1.496 8.629 5.921 3.524 12.847c0 0-9.09-4.744-8.119-8.115.973-3.37 3.305-3.236 3.305-3.236z"
   ></path>
   <g fill="none" stroke="#407bff" stroke-miterlimit="10">
      <path d="M238.27 70.602s11.476-41.554 32.605-52.759"></path>
      <path d="M238.49 65.846s20.5-44.451 13.382-58.791"></path>
      <path d="M237.68 69.087s16.666-55.675 26.962-62.241"></path>
   </g>
   <path
      fill="#00b0d8"
      d="M255.06 9.003s3.013.8 3.457-1.053c.443-1.852-8.833-10.616-18.147-5.774 0 0 1.418 8.746 7.398 11.148 5.98 2.403 7.292-4.321 7.292-4.321z"
   ></path>
   <path
      fill="#fff"
      opacity=".2"
      d="M255.06 9.003s3.013.8 3.457-1.053c.443-1.852-8.833-10.616-18.147-5.774 0 0 1.418 8.746 7.398 11.148 5.98 2.403 7.292-4.321 7.292-4.321z"
   ></path>
   <path
      fill="#00b0d8"
      d="M262.1 6.792s-3.107.261-3.22-1.64 10.55-8.91 18.877-2.517c0 0-2.924 8.365-9.232 9.685-6.308 1.321-6.425-5.528-6.425-5.528z"
   ></path>
   <path
      fill="#fff"
      opacity=".2"
      d="M262.1 6.792s-3.107.261-3.22-1.64 10.55-8.91 18.877-2.517c0 0-2.924 8.365-9.232 9.685-6.308 1.321-6.425-5.528-6.425-5.528z"
   ></path>
   <path
      fill="#00b0d8"
      d="M271.97 15.191s-1.379-2.379 1.079-2.34c2.457.041 12.948 4.323 9.037 14.842 0 0-13.104-2.68-13.097-7.256.007-4.575 2.98-5.246 2.98-5.246z"
   ></path>
   <path
      fill="#fff"
      opacity=".2"
      d="M271.97 15.191s-1.379-2.379 1.079-2.34c2.457.041 12.948 4.323 9.037 14.842 0 0-13.104-2.68-13.097-7.256.007-4.575 2.98-5.246 2.98-5.246z"
   ></path>
   <path
      fill="#00b0d8"
      d="M262.22 21.131s.577-2.028 1.865-.653c1.287 1.376 4.519 9.44-3.363 12.891 0 0-5.507-8.65-2.982-11.085 2.526-2.434 4.48-1.153 4.48-1.153z"
   ></path>
   <path
      fill="#fff"
      opacity=".2"
      d="M262.22 21.131s.577-2.028 1.865-.653c1.287 1.376 4.519 9.44-3.363 12.891 0 0-5.507-8.65-2.982-11.085 2.526-2.434 4.48-1.153 4.48-1.153z"
   ></path>
   <path
      fill="#00b0d8"
      d="M49.619 21.813s1.002-1.855-.88-1.768c-1.882.087-9.824 3.608-6.586 11.58 0 0 9.98-2.352 9.87-5.859-.11-3.506-2.404-3.952-2.404-3.952z"
   ></path>
   <path
      fill="#fff"
      opacity=".2"
      d="M49.619 21.813s1.002-1.855-.88-1.768c-1.882.087-9.824 3.608-6.586 11.58 0 0 9.98-2.352 9.87-5.859-.11-3.506-2.404-3.952-2.404-3.952z"
   ></path>
   <path
      fill="#00b0d8"
      d="M227.14 90.65s-6.661-.26-7.326-13.705 11.076-17.034 20.113-15.385c0 0-1.318-9.573 4.535-9.222 5.854.352 5.455 6.744 5.455 6.744s1.997-13.574 9.99-13.58c7.99-.006 0 16.058 0 16.058s11.055-3.916 15.118 0c4.062 3.916-5.079 8.508-5.079 8.508s14.335 3.447 8.342 14.412c0 0 9.99 1.15 12.787 6.059 0 0-.8-9.904 2.796-9.24 3.596.664 2.797 9.352 2.797 9.352s5.994-9.544 11.19-6.17c5.194 3.373-2.399 11.454-2.399 11.454s9.99-3.579 11.59 1.163c1.597 4.741-5.595 6.508-5.595 6.508s10.39-1.772 10.39 7.022c0 0 19.979-1.407 24.774 6.49h-119.08z"
   ></path>
   <path
      fill="#fff"
      d="M227.14 90.65s-6.661-.26-7.326-13.705 11.076-17.034 20.113-15.385c0 0-1.318-9.573 4.535-9.222 5.854.352 5.455 6.744 5.455 6.744s1.997-13.574 9.99-13.58c7.99-.006 0 16.058 0 16.058s11.055-3.916 15.118 0c4.062 3.916-5.079 8.508-5.079 8.508s14.335 3.447 8.342 14.412c0 0 9.99 1.15 12.787 6.059 0 0-.8-9.904 2.796-9.24 3.596.664 2.797 9.352 2.797 9.352s5.994-9.544 11.19-6.17c5.194 3.373-2.399 11.454-2.399 11.454s9.99-3.579 11.59 1.163c1.597 4.741-5.595 6.508-5.595 6.508s10.39-1.772 10.39 7.022c0 0 19.979-1.407 24.774 6.49h-119.08z"
      opacity=".4"
   ></path>
   <path
      fill="#00b0d8"
      d="M88.135 90.65s4.914-.26 5.404-13.705c.49-13.445-8.17-17.034-14.837-15.385 0 0 .973-9.573-3.346-9.222-4.319.352-4.024 6.744-4.024 6.744s-1.473-13.574-7.37-13.58c-5.895-.006 0 16.058 0 16.058s-8.155-3.916-11.151 0c-2.996 3.916 3.746 8.508 3.746 8.508s-10.574 3.447-6.153 14.412c0 0-7.37 1.15-9.432 6.059 0 0 .59-9.904-2.064-9.24-2.653.664-2.063 9.352-2.063 9.352s-4.421-9.544-8.254-6.17c-3.832 3.373 1.769 11.454 1.769 11.454s-7.37-3.579-8.548 1.163c-1.18 4.741 4.127 6.508 4.127 6.508s-7.664-1.772-7.664 7.022c0 0-14.738-1.407-18.275 6.49h87.84z"
   ></path>
   <path
      fill="#fff"
      opacity=".4"
      d="M88.135 90.65s4.914-.26 5.404-13.705c.49-13.445-8.17-17.034-14.837-15.385 0 0 .973-9.573-3.346-9.222-4.319.352-4.024 6.744-4.024 6.744s-1.473-13.574-7.37-13.58c-5.895-.006 0 16.058 0 16.058s-8.155-3.916-11.151 0c-2.996 3.916 3.746 8.508 3.746 8.508s-10.574 3.447-6.153 14.412c0 0-7.37 1.15-9.432 6.059 0 0 .59-9.904-2.064-9.24-2.653.664-2.063 9.352-2.063 9.352s-4.421-9.544-8.254-6.17c-3.832 3.373 1.769 11.454 1.769 11.454s-7.37-3.579-8.548 1.163c-1.18 4.741 4.127 6.508 4.127 6.508s-7.664-1.772-7.664 7.022c0 0-14.738-1.407-18.275 6.49h87.84z"
   ></path>
   <path
      fill="#00b0d8"
      d="M44.274 114.87s20.366-13.201 16.504-15.429c-3.862-2.228-17.449 10.955-17.449 10.955S58.338 88.434 54.63 84.032c-3.708-4.4-13.698 17.898-13.698 17.898s6.793-25.495 1.998-28.292c-4.795-2.797-6.533 25.552-6.533 25.552S34.523 68.483 25.74 68.862c-8.783.38 4.004 30.328 4.004 30.328S17.357 81.42 12.963 86.464c-4.396 5.043 13.986 19.212 13.986 19.212s-13.745-6.463-14.664-1.668c-.92 4.795 15.164 9.89 15.164 9.89s-5.169 1.483-6.365 3.215l27.506.002c-.002 0 .434-1.32-4.315-2.244z"
   ></path>
   <path
      fill="#fff"
      opacity=".6"
      d="M44.274 114.87s20.366-13.201 16.504-15.429c-3.862-2.228-17.449 10.955-17.449 10.955S58.338 88.434 54.63 84.032c-3.708-4.4-13.698 17.898-13.698 17.898s6.793-25.495 1.998-28.292c-4.795-2.797-6.533 25.552-6.533 25.552S34.523 68.483 25.74 68.862c-8.783.38 4.004 30.328 4.004 30.328S17.357 81.42 12.963 86.464c-4.396 5.043 13.986 19.212 13.986 19.212s-13.745-6.463-14.664-1.668c-.92 4.795 15.164 9.89 15.164 9.89s-5.169 1.483-6.365 3.215l27.506.002c-.002 0 .434-1.32-4.315-2.244z"
   ></path>
   <path
      fill="#00b0d8"
      d="M54.463 117.12s23.443-86.232 27.704-89.429c4.263-3.197 28.576-12.184 28.576-12.184s59.139 9.874 68.028 8.898c8.889-.976 37.455-6.483 41.552 0 4.098 6.483 20.271 45.377 20.271 45.377l22.721 9.59 14.386 37.748z"
   ></path>
   <path
      fill="#fff"
      opacity=".6"
      d="M277.71 117.12H54.47s23.323-85.826 27.666-89.412c.02-.01.03-.02.03-.02.88-.657 2.596-1.556 4.778-2.576 8.444-3.93 23.797-9.606 23.797-9.606s59.14 9.879 68.029 8.9c8.889-.98 37.454-6.486 41.555 0 .869 1.383 2.293 4.231 3.99 7.868 6.262 13.424 16.282 37.504 16.282 37.504l22.717 9.595z"
   ></path>
   <path
      opacity=".1"
      d="m224.31 32.271-8.818 8.727-22.979-5.404-25.999 5.404 1.667 10.05-9.465 11.272 3.364-11.272-7.374-12.394s-29.918 1.818-37.726 0c-4.899-1.141-19.717-8.353-30.04-13.545 8.444-3.93 23.797-9.606 23.797-9.606s59.14 9.879 68.03 8.9c8.888-.98 37.453-6.486 41.554 0 .869 1.383 2.293 4.231 3.99 7.868z"
   ></path>
   <path
      opacity=".1"
      d="M277.71 117.12H54.47s23.323-85.826 27.666-89.412c.02-.01.03-.02.03-.02L67.783 94.595l7.192 11.08 17.676-13.413 13.555 7.565 18.808-3.798 1.869-9.1 26.646-17.525-16.727 15.495 5.888 17.676 25.605 4.414h28.292l11.697-7.798-3.899-15.858-5.888-9.192 29.848-.07-12.707 7.868 4.686 13.969 14.373 6.666 16.707-10.313 6.808 19.676z"
   ></path>
   <path
      fill="#00b0d8"
      d="M247.86 117.12h37.003s-7.369-11.274-10.509-9.844c-4.088 1.862-7.117-8.351-11.642-5.932-1.594.852-.814 3.584-1.82 4.684-1.658 1.816-3.767 1.465-5.772 2.463-3.925 1.955-5.323 4.547-7.26 8.629z"
   ></path>
   <path
      opacity=".2"
      d="M247.86 117.12h37.003s-7.369-11.274-10.509-9.844c-4.088 1.862-7.117-8.351-11.642-5.932-1.594.852-.814 3.584-1.82 4.684-1.658 1.816-3.767 1.465-5.772 2.463-3.925 1.955-5.323 4.547-7.26 8.629z"
   ></path>
   <path
      fill="#00b0d8"
      d="M280.82 113.97s-2.43-14.094-.753-16.159c1.677-2.066 1.971 7.69 1.971 7.69s5.636-20.364 9.243-20.471S287 102.696 287 102.696s15.416-25.193 19.897-22.847c4.481 2.346-16.136 24.678-16.136 24.678s11.276-9.702 13.76-6.963c2.484 2.74-12.518 11.118-12.518 11.118s6.615-1.487 6.608.715c-.007 2.2-11.168 5.823-17.79 4.573z"
   ></path>
   <path
      fill="#fff"
      opacity=".2"
      d="M280.82 113.97s-2.43-14.094-.753-16.159c1.677-2.066 1.971 7.69 1.971 7.69s5.636-20.364 9.243-20.471S287 102.696 287 102.696s15.416-25.193 19.897-22.847c4.481 2.346-16.136 24.678-16.136 24.678s11.276-9.702 13.76-6.963c2.484 2.74-12.518 11.118-12.518 11.118s6.615-1.487 6.608.715c-.007 2.2-11.168 5.823-17.79 4.573z"
   ></path>
   <path
      fill="#00b0d8"
      d="M278.6 111.96s-11.586-2.102-12.71-3.982c-1.124-1.88 6.503.648 6.503.648s-14.157-10.11-13.221-12.93c.936-2.82 12.453 8.302 12.453 8.302s-15.13-19.036-12.05-21.84c3.08-2.802 14.528 19.449 14.528 19.449s-4.318-11.46-1.5-12.608c2.821-1.148 5.063 12.82 5.063 12.82s.719-5.536 2.42-4.908c1.7.626 1.351 10.28-1.486 15.049z"
   ></path>
   <path
      fill="#fff"
      opacity=".2"
      d="M278.6 111.96s-11.586-2.102-12.71-3.982c-1.124-1.88 6.503.648 6.503.648s-14.157-10.11-13.221-12.93c.936-2.82 12.453 8.302 12.453 8.302s-15.13-19.036-12.05-21.84c3.08-2.802 14.528 19.449 14.528 19.449s-4.318-11.46-1.5-12.608c2.821-1.148 5.063 12.82 5.063 12.82s.719-5.536 2.42-4.908c1.7.626 1.351 10.28-1.486 15.049z"
   ></path>
   <path
      fill="#00b0d8"
      d="M277.73 110.42s-11.189-11.209-10.989-14.148c.2-2.94 6.689 5.704 6.689 5.704s-7.888-22.03-4.691-24.427c3.197-2.398 7.393 18.723 7.393 18.723s-2.115-32.64 3.438-33.373c5.553-.734 1.134 32.632 1.134 32.632s4.02-15.974 8.015-15.08c3.996.895-4.24 18.048-4.24 18.048s5.04-5.566 6.437-3.568c1.398 2-6.394 12.398-13.187 15.49z"
   ></path>
   <path
      fill="#fff"
      opacity=".1"
      d="M277.73 110.42s-11.189-11.209-10.989-14.148c.2-2.94 6.689 5.704 6.689 5.704s-7.888-22.03-4.691-24.427c3.197-2.398 7.393 18.723 7.393 18.723s-2.115-32.64 3.438-33.373c5.553-.734 1.134 32.632 1.134 32.632s4.02-15.974 8.015-15.08c3.996.895-4.24 18.048-4.24 18.048s5.04-5.566 6.437-3.568c1.398 2-6.394 12.398-13.187 15.49z"
   ></path>
   <path
      fill="#00b0d8"
      d="M264.17 117.12h29.487s-5.872-8.985-8.374-7.844c-3.258 1.484-5.672-6.656-9.278-4.727-1.27.678-.648 2.856-1.45 3.733-1.32 1.447-3.002 1.166-4.6 1.962-3.128 1.558-4.242 3.623-5.785 6.876zM80.032 117.12H43.029s7.368-11.274 10.509-9.844c4.088 1.862 7.117-8.351 11.642-5.932 1.594.852.814 3.584 1.82 4.684 1.658 1.816 3.767 1.465 5.772 2.463 3.925 1.955 5.323 4.547 7.26 8.629z"
   ></path>
   <path
      opacity=".2"
      d="M80.032 117.12H43.029s7.368-11.274 10.509-9.844c4.088 1.862 7.117-8.351 11.642-5.932 1.594.852.814 3.584 1.82 4.684 1.658 1.816 3.767 1.465 5.772 2.463 3.925 1.955 5.323 4.547 7.26 8.629z"
   ></path>
   <path
      fill="#00b0d8"
      d="M47.074 113.97s2.43-14.094.753-16.159c-1.677-2.066-1.971 7.69-1.971 7.69S40.22 85.137 36.613 85.03c-3.607-.107 4.282 17.666 4.282 17.666S25.48 77.503 20.998 79.849c-4.48 2.346 16.136 24.678 16.136 24.678s-11.276-9.702-13.76-6.963c-2.483 2.74 12.518 11.118 12.518 11.118s-6.615-1.487-6.608.715c.007 2.2 11.167 5.823 17.79 4.573z"
   ></path>
   <path
      fill="#fff"
      opacity=".2"
      d="M47.074 113.97s2.43-14.094.753-16.159c-1.677-2.066-1.971 7.69-1.971 7.69S40.22 85.137 36.613 85.03c-3.607-.107 4.282 17.666 4.282 17.666S25.48 77.503 20.998 79.849c-4.48 2.346 16.136 24.678 16.136 24.678s-11.276-9.702-13.76-6.963c-2.483 2.74 12.518 11.118 12.518 11.118s-6.615-1.487-6.608.715c.007 2.2 11.167 5.823 17.79 4.573z"
   ></path>
   <path
      fill="#00b0d8"
      d="M58.433 114.64s8.818-7.803 8.805-9.993c-.013-2.19-5.226 3.925-5.226 3.925s6.866-15.983 4.604-17.91c-2.262-1.926-6.347 13.554-6.347 13.554s3.07-24.122-1.016-24.923c-4.087-.8-2.342 24.161-2.342 24.161s-2.248-12.038-5.254-11.557c-3.006.48 2.316 13.587 2.316 13.587s-3.483-4.361-4.613-2.943c-1.13 1.417 4.174 9.492 9.073 12.1z"
   ></path>
   <path
      fill="#fff"
      opacity=".2"
      d="M58.433 114.64s8.818-7.803 8.805-9.993c-.013-2.19-5.226 3.925-5.226 3.925s6.866-15.983 4.604-17.91c-2.262-1.926-6.347 13.554-6.347 13.554s3.07-24.122-1.016-24.923c-4.087-.8-2.342 24.161-2.342 24.161s-2.248-12.038-5.254-11.557c-3.006.48 2.316 13.587 2.316 13.587s-3.483-4.361-4.613-2.943c-1.13 1.417 4.174 9.492 9.073 12.1z"
   ></path>
   <path
      fill="#00b0d8"
      d="M63.728 117.12H34.241s5.872-8.985 8.374-7.844c3.258 1.484 5.672-6.656 9.278-4.727 1.27.678.648 2.856 1.45 3.733 1.32 1.447 3.002 1.166 4.6 1.962 3.128 1.558 4.242 3.623 5.785 6.876z"
   ></path>
</svg>
