<svg xmlns="http://www.w3.org/2000/svg" viewBox="0 0 640 100">
  <defs>
    <clipPath id="a">
      <path fill="#fff" d="M0 8v84a8 8 45 0 0 8 8h632V0H8a8 8 135 0 0-8 8z" style="paint-order:markers fill stroke" transform="translate(0 -164.08)"/>
    </clipPath>
  </defs>
  <g clip-path="url(#a)" transform="translate(0 164.08)">
    <path fill="#fff" d="M0 0v100h640V0z" style="paint-order:markers fill stroke" transform="translate(0 -164.08)"/>
    <path fill="#61dafb" d="M53.305-134.07a4.434 4.434 0 0 0-2.091.575c-1.278.738-2.042 2.092-2.385 3.695-.342 1.603-.307 3.508.035 5.641.131.82.524 1.803.746 2.685-.876.25-1.923.4-2.7.697-2.019.771-3.686 1.694-4.903 2.792-1.216 1.099-2.007 2.436-2.007 3.912s.79 2.814 2.007 3.912c1.217 1.098 2.884 2.021 4.903 2.792.777.297 1.824.448 2.7.697-.222.883-.615 1.864-.746 2.685-.342 2.134-.377 4.039-.035 5.642.343 1.602 1.107 2.956 2.385 3.694 1.278.738 2.832.722 4.392.217 1.56-.504 3.191-1.486 4.867-2.849.646-.525 1.3-1.357 1.954-1.992.654.635 1.309 1.467 1.954 1.992 1.677 1.363 3.309 2.345 4.868 2.85 1.56.504 3.114.52 4.392-.218 1.278-.738 2.042-2.092 2.385-3.694.342-1.603.307-3.508-.035-5.642-.131-.82-.524-1.802-.746-2.685.876-.249 1.923-.4 2.7-.697 2.019-.77 3.686-1.694 4.903-2.792 1.216-1.098 2.007-2.436 2.007-3.912s-.79-2.813-2.007-3.912c-1.217-1.098-2.884-2.021-4.903-2.792-.777-.296-1.824-.448-2.7-.697.222-.882.615-1.864.746-2.685.342-2.133.377-4.038.035-5.641-.343-1.603-1.107-2.957-2.385-3.695-1.278-.738-2.832-.721-4.392-.217-1.56.505-3.191 1.487-4.868 2.85-.645.524-1.3 1.356-1.954 1.991-.653-.635-1.308-1.467-1.954-1.992-1.676-1.362-3.308-2.344-4.867-2.849-.78-.252-1.558-.383-2.301-.358zm1.699 2.213c1.223.396 2.691 1.248 4.24 2.506.59.48 1.216 1.272 1.824 1.863-1.274 1.377-2.483 2.913-3.706 4.64-2.107.195-4.04.476-5.87.89-.208-.821-.58-1.759-.701-2.51-.316-1.97-.322-3.667-.053-4.924.269-1.258.77-2.022 1.45-2.415.682-.393 1.593-.446 2.816-.05zm14.847 0c1.223-.396 2.134-.343 2.815.05.68.392 1.182 1.157 1.45 2.414.27 1.258.263 2.955-.052 4.925-.12.751-.494 1.689-.701 2.51-1.83-.414-3.763-.695-5.87-.89-1.223-1.727-2.432-3.263-3.706-4.64.608-.59 1.234-1.383 1.824-1.863 1.549-1.258 3.017-2.11 4.24-2.506zm-7.424 5.755c.878.955 1.71 1.918 2.579 3.063-.884-.042-1.666-.198-2.579-.198-.913 0-1.694.156-2.579.198a41.006 41.006 0 0 1 2.58-3.063zm0 4.815c1.418 0 2.654.206 3.992.309.756 1.106 1.55 2.072 2.259 3.298.708 1.227 1.145 2.399 1.725 3.607-.58 1.209-1.017 2.38-1.725 3.607-.708 1.226-1.503 2.193-2.26 3.299-1.337.102-2.573.308-3.99.308-1.419 0-2.655-.206-3.993-.308-.756-1.106-1.55-2.073-2.258-3.299-.709-1.226-1.146-2.398-1.726-3.607.58-1.208 1.017-2.38 1.726-3.607.707-1.226 1.502-2.192 2.258-3.298 1.338-.103 2.574-.309 3.992-.309zm-6.479.499c-.477.744-1.003 1.343-1.459 2.133-.456.79-.71 1.542-1.116 2.327a40.941 40.941 0 0 1-1.36-3.76 40.972 40.972 0 0 1 3.935-.7zm12.958 0c1.423.179 2.671.418 3.935.7a40.941 40.941 0 0 1-1.36 3.76c-.406-.785-.66-1.537-1.116-2.327-.456-.79-.981-1.388-1.459-2.133zM50.128-119.6c.556 1.792 1.28 3.605 2.163 5.527-.883 1.922-1.607 3.736-2.163 5.527-.814-.23-1.812-.376-2.522-.647-1.863-.712-3.338-1.554-4.292-2.415-.955-.862-1.364-1.679-1.364-2.465s.41-1.603 1.364-2.464c.954-.862 2.429-1.703 4.292-2.415.71-.27 1.707-.416 2.522-.647zm24.599 0c.814.231 1.812.377 2.522.648 1.863.712 3.338 1.553 4.292 2.415.955.861 1.364 1.678 1.364 2.464s-.41 1.603-1.364 2.465c-.954.861-2.429 1.703-4.292 2.415-.71.27-1.707.416-2.522.647-.556-1.792-1.28-3.605-2.164-5.527.884-1.922 1.608-3.735 2.164-5.527zm-21.353 7.782c.406.785.66 1.538 1.116 2.327.456.79.981 1.389 1.459 2.133a40.975 40.975 0 0 1-3.935-.7 40.941 40.941 0 0 1 1.36-3.76zm18.108 0a40.941 40.941 0 0 1 1.36 3.76 40.972 40.972 0 0 1-3.935.7c.478-.744 1.003-1.342 1.459-2.132.456-.79.71-1.543 1.116-2.328zm-19.99 5.63c1.83.415 3.763.695 5.87.891 1.223 1.727 2.432 3.262 3.706 4.64-.608.59-1.235 1.383-1.825 1.862-1.548 1.258-3.016 2.11-4.239 2.506s-2.134.344-2.815-.049c-.68-.393-1.182-1.158-1.451-2.415-.269-1.257-.262-2.955.053-4.925.12-.75.493-1.688.701-2.51zm21.871 0c.207.822.58 1.76.7 2.51.316 1.97.323 3.668.054 4.925-.269 1.257-.77 2.022-1.451 2.415-.68.393-1.592.445-2.815.05-1.223-.396-2.691-1.249-4.24-2.507-.59-.48-1.216-1.272-1.824-1.863 1.274-1.377 2.483-2.912 3.706-4.639 2.107-.196 4.04-.477 5.87-.891zm-13.514 1.082c.884.041 1.665.198 2.579.198.913 0 1.694-.157 2.578-.198a41.006 41.006 0 0 1-2.578 3.062 41.01 41.01 0 0 1-2.579-3.062zm6.577-8.967a3.998 3.998 0 0 1-3.998 3.998 3.998 3.998 0 0 1-3.998-3.998 3.998 3.998 0 0 1 3.998-3.998 3.998 3.998 0 0 1 3.998 3.998z" color="#000" style="-inkscape-stroke:none"/>
    <g stroke-width="2.951">
      <path fill="#ff3e00" d="M175.681-128.783c-3.694-5.32-11.048-6.88-16.335-3.525l-9.32 5.965a10.592 10.592 0 0 0-4.812 7.15c-.44 2.475-.068 5.016 1.118 7.22a10.232 10.232 0 0 0-1.593 3.998 11.403 11.403 0 0 0 1.932 8.608c3.728 5.321 11.048 6.88 16.335 3.525l9.32-5.93a10.592 10.592 0 0 0 4.812-7.152c.44-2.474.068-5.015-1.118-7.218a10.232 10.232 0 0 0 1.593-4 11.166 11.166 0 0 0-1.932-8.641"/>
      <path fill="#fff" d="M158.431-98.858a7.387 7.387 0 0 1-7.93-2.949c-1.085-1.49-1.491-3.355-1.186-5.185.067-.305.135-.576.203-.881l.17-.542.474.339a12.362 12.362 0 0 0 3.66 1.83l.339.101-.034.34c-.034.474.102.982.373 1.389.542.78 1.49 1.152 2.406.915.203-.068.407-.136.576-.237l9.286-5.931c.474-.305.78-.746.881-1.288s-.034-1.118-.339-1.559a2.224 2.224 0 0 0-2.406-.881c-.203.068-.407.135-.576.237l-3.559 2.27a6.304 6.304 0 0 1-1.897.814 7.387 7.387 0 0 1-7.93-2.948 6.845 6.845 0 0 1-1.153-5.185 6.417 6.417 0 0 1 2.915-4.305l9.32-5.93c.575-.373 1.22-.644 1.897-.848a7.387 7.387 0 0 1 7.93 2.949c1.085 1.491 1.492 3.355 1.187 5.185a8.487 8.487 0 0 1-.238.881l-.17.542-.474-.338a12.362 12.362 0 0 0-3.66-1.83l-.339-.102.034-.34a2.268 2.268 0 0 0-.372-1.389 2.224 2.224 0 0 0-2.407-.88c-.203.067-.406.135-.576.237l-9.286 5.93c-.474.305-.78.746-.88 1.288s.033 1.118.338 1.56a2.224 2.224 0 0 0 2.406.88c.204-.068.407-.135.576-.237l3.559-2.27c.576-.373 1.22-.645 1.898-.848a7.387 7.387 0 0 1 7.93 2.949c1.084 1.49 1.491 3.355 1.186 5.185a6.417 6.417 0 0 1-2.914 4.304l-9.32 5.93c-.576.373-1.22.644-1.898.848"/>
    </g>
    <path d="M256.21-134.06c-.086.008-.36.035-.606.055-5.68.512-11.001 3.577-14.371 8.288a19.797 19.797 0 0 0-3.53 8.737c-.16 1.1-.18 1.424-.18 2.913 0 1.49.02 1.814.18 2.913 1.087 7.51 6.43 13.82 13.679 16.158 1.298.418 2.666.703 4.222.875.606.067 3.225.067 3.831 0 2.686-.297 4.961-.961 7.205-2.107.344-.176.41-.223.364-.262-.031-.023-1.497-1.99-3.257-4.367l-3.198-4.32-4.007-5.93c-2.205-3.26-4.019-5.927-4.034-5.927-.016-.004-.032 2.631-.04 5.848-.011 5.634-.015 5.86-.085 5.994-.102.191-.18.27-.345.356-.125.062-.234.074-.824.074h-.677l-.18-.114a.731.731 0 0 1-.262-.285l-.082-.176.008-7.838.012-7.843.121-.152c.063-.082.196-.188.29-.239.16-.078.222-.086.899-.086.797 0 .93.032 1.137.258.059.063 2.229 3.331 4.825 7.268s6.145 9.312 7.89 11.951l3.166 4.797.16-.105c1.42-.923 2.92-2.237 4.109-3.605a19.909 19.909 0 0 0 4.707-10.223c.16-1.099.18-1.423.18-2.913 0-1.49-.02-1.814-.18-2.912-1.087-7.51-6.431-13.82-13.679-16.158-1.278-.415-2.639-.7-4.164-.872-.375-.04-2.96-.082-3.284-.05zm8.187 12.096c.187.094.34.274.394.461.032.102.04 2.276.032 7.174l-.012 7.03-1.24-1.9-1.243-1.9v-5.11c0-3.304.016-5.16.04-5.25a.798.798 0 0 1 .387-.493c.16-.082.219-.09.832-.09.579 0 .68.008.81.078z"/>
    <g stroke-width="20" transform="translate(337.22 -134.08) scale(.03906)">
      <circle cx="512" cy="512" r="512" fill="#13aa52"/>
      <path fill="#fff" d="M648.86 449.44c-32.34-142.73-108.77-189.66-117-207.59-9-12.65-18.12-35.15-18.12-35.15-.15-.38-.39-1.05-.67-1.7-.93 12.65-1.41 17.53-13.37 30.29-18.52 14.48-113.54 94.21-121.27 256.37-7.21 151.24 109.25 241.36 125 252.85l1.79 1.27v-.11c.1.76 5 36 8.44 73.34H526a726.68 726.68 0 0 1 13-78.53l1-.65a204.48 204.48 0 0 0 20.11-16.45l.72-.65c33.48-30.93 93.67-102.47 93.08-216.53a347.07 347.07 0 0 0-5.05-56.76zM512.35 659.12s0-212.12 7-212.08c5.46 0 12.53 273.61 12.53 273.61-9.72-1.17-19.53-45.03-19.53-61.53z"/>
    </g>
    <g fill-rule="evenodd" stroke-width="56.062">
      <path fill="#00f2e6" d="m581.135-103.793 7.045 9.72 5.396-3.923-7.045-9.722-5.396-1.739zm-6.69-20.558-7.09-9.721-5.395 3.924 7.045 9.721 5.44 1.74z"/>
      <path fill="#00b9f1" d="m569.005-120.427-11.415-3.7-2.052 6.331 11.416 3.746 5.396-1.783zm14.181 8.116 3.345 4.593 11.415 3.702 2.052-6.333-11.416-3.7z"/>
      <path fill="#d63aff" d="m588.582-114.05 11.416-3.746-2.052-6.332-11.415 3.701-3.345 4.594zm-21.628 0-11.416 3.701 2.052 6.333 11.415-3.702 3.345-4.593z"/>
      <path fill="#fb015b" d="m569.005-107.718-7.045 9.722 5.396 3.924 7.09-9.721v-5.664zm17.526-12.709 7.045-9.72-5.396-3.925-7.045 9.721v5.664z"/>
    </g>
    <g stroke-width="9.53">
      <path fill="#5d87a1" d="M451.09-97.64h-2.273c-.08-3.836-.301-7.443-.663-10.822h-.02l-3.46 10.822h-1.73l-3.44-10.822h-.02c-.255 3.245-.416 6.852-.483 10.822h-2.071c.133-4.828.469-9.354 1.005-13.579h2.817l3.278 9.978h.02l3.299-9.978h2.695c.59 4.949.939 9.475 1.046 13.579m9.856-10.018c-.925 5.021-2.146 8.67-3.661 10.947-1.18 1.753-2.474 2.63-3.882 2.63-.376 0-.84-.113-1.388-.338v-1.21c.268.038.583.06.945.06.658 0 1.187-.18 1.59-.543.482-.442.723-.939.723-1.488 0-.377-.188-1.147-.563-2.314l-2.494-7.745h2.233l1.79 5.793c.402 1.315.57 2.233.503 2.756.979-2.614 1.662-5.465 2.052-8.55h2.152z"/>
      <path fill="#f8981d" d="M491.197-97.64h-6.456v-13.579h2.172v11.907h4.284zm-8.146.328-2.496-1.232c.221-.182.433-.379.624-.606 1.06-1.247 1.59-3.09 1.59-5.531 0-4.492-1.763-6.74-5.29-6.74-1.73 0-3.078.57-4.043 1.71-1.06 1.248-1.59 3.085-1.59 5.513 0 2.387.47 4.138 1.408 5.248.859 1.006 2.153 1.51 3.884 1.51.645 0 1.238-.079 1.777-.238l3.25 1.891zm-8.086-3.045c-.55-.885-.825-2.305-.825-4.263 0-3.42 1.039-5.13 3.118-5.13 1.087 0 1.884.409 2.393 1.226.55.885.826 2.293.826 4.224 0 3.447-1.04 5.17-3.118 5.17-1.087.001-1.884-.407-2.394-1.227m-4.065-1.047c0 1.152-.422 2.096-1.266 2.836-.845.737-1.978 1.107-3.398 1.107-1.328 0-2.616-.425-3.862-1.269l.584-1.166c1.072.537 2.043.804 2.915.804.818 0 1.457-.181 1.921-.54.463-.362.74-.868.74-1.508 0-.807-.563-1.497-1.595-2.074-.952-.523-2.855-1.615-2.855-1.615-1.032-.752-1.548-1.56-1.548-2.89 0-1.1.385-1.988 1.156-2.664.771-.678 1.767-1.017 2.987-1.017 1.26 0 2.407.338 3.439 1.007l-.524 1.166c-.883-.375-1.754-.563-2.613-.563-.696 0-1.234.168-1.608.504-.376.334-.609.763-.609 1.288 0 .803.575 1.5 1.635 2.09.964.523 2.915 1.635 2.915 1.635 1.058.75 1.586 1.55 1.586 2.87"/>
      <path fill="#5d87a1" d="M493.924-115.765c-1.313-.034-2.33.099-3.183.46-.246.098-.638.098-.672.41.133.131.148.344.264.525.196.328.54.77.852 1 .344.263.69.524 1.051.754.638.395 1.362.624 1.984 1.018.362.229.722.525 1.085.771.178.131.292.344.524.427v-.05c-.116-.148-.15-.361-.263-.526l-.493-.475a7.808 7.808 0 0 0-1.705-1.656c-.526-.362-1.674-.854-1.887-1.459l-.034-.033c.361-.034.79-.165 1.132-.266.558-.147 1.067-.113 1.64-.26.264-.066.525-.149.79-.23v-.148c-.298-.296-.51-.688-.821-.968a21.844 21.844 0 0 0-2.707-2.017c-.51-.33-1.165-.541-1.707-.82-.196-.1-.525-.148-.64-.313-.295-.36-.46-.836-.674-1.263a41.066 41.066 0 0 1-1.344-2.855c-.296-.64-.476-1.278-.837-1.87-1.69-2.789-3.527-4.478-6.349-6.135-.606-.346-1.328-.493-2.099-.674l-1.23-.065c-.263-.115-.526-.427-.755-.575-.937-.59-3.347-1.87-4.036-.18-.443 1.068.656 2.117 1.034 2.659.279.376.64.803.835 1.23.116.279.148.575.264.87.262.722.508 1.525.853 2.199.18.343.376.704.606 1.015.132.182.361.262.412.558-.23.327-.247.82-.379 1.23-.59 1.854-.36 4.15.477 5.513.262.41.887 1.313 1.722.967.74-.295.576-1.23.788-2.05.049-.198.017-.328.115-.458v.032c.229.459.46.901.672 1.361.51.804 1.395 1.64 2.134 2.197.393.297.704.805 1.196.986v-.05h-.032c-.1-.146-.246-.212-.377-.326a7.966 7.966 0 0 1-.853-.985c-.688-.919-1.296-1.936-1.836-2.986-.265-.51-.493-1.067-.706-1.575-.099-.196-.099-.492-.264-.591-.247.36-.606.673-.786 1.114-.312.707-.345 1.576-.46 2.48l-.065.031c-.523-.13-.705-.671-.903-1.13-.492-1.166-.574-3.037-.148-4.381.114-.344.608-1.427.411-1.755-.099-.314-.427-.493-.607-.74a6.669 6.669 0 0 1-.591-1.05c-.394-.918-.592-1.935-1.016-2.853-.198-.428-.542-.87-.82-1.264-.313-.443-.657-.755-.904-1.28-.082-.18-.196-.475-.065-.672.032-.131.099-.18.23-.214.212-.18.82.05 1.033.148.608.246 1.117.476 1.624.82.23.165.476.476.77.559h.346c.524.114 1.115.031 1.608.18.869.279 1.656.689 2.363 1.13a14.557 14.557 0 0 1 5.117 5.612c.196.377.28.722.459 1.116.345.804.772 1.624 1.115 2.412.345.77.674 1.558 1.166 2.198.246.344 1.232.525 1.674.705.327.147.837.278 1.132.459.558.343 1.114.738 1.639 1.116.261.197 1.082.607 1.131.936m-16.735-14.257a2.556 2.556 0 0 0-.671.082v.033h.032c.132.263.361.444.525.673.132.263.247.524.377.787l.031-.033c.232-.164.347-.426.347-.82-.1-.116-.115-.23-.198-.344-.097-.165-.31-.246-.443-.378"/>
      <path fill="#f8981d" d="M495.487-97.64h.34v-1.664h-.51l-.415 1.135-.452-1.135h-.491v1.664h.32v-1.266h.019l.473 1.266h.245l.471-1.266zm-2.738 0h.36v-1.382h.47v-.282h-1.32v.282h.49z"/>
    </g>
  </g>
</svg>