<svg xmlns="http://www.w3.org/2000/svg" xml:space="preserve" viewBox="0 0 396.97 394.78">
   <path
      fill="#1b75bb"
      d="M47.172 211.51a.9.9 0 0 1-.682-1.485l.819-.955a.899.899 0 1 1 1.365 1.17l-.82.956a.896.896 0 0 1-.682.314zM57.244 94.33a.63.63 0 0 1-.628-.588l-.083-1.256a.63.63 0 0 1 1.256-.084l.084 1.257a.63.63 0 0 1-.586.67h-.043zm-.227-3.41a.63.63 0 0 1-.628-.587l-.084-1.257a.63.63 0 1 1 1.257-.083l.083 1.256a.63.63 0 0 1-.586.67h-.042zm6.344 5.838c-.08 0-.161-.01-.242-.033l-1.213-.336a.9.9 0 1 1 .482-1.733l1.213.337a.9.9 0 0 1-.24 1.766zm-3.293-.914c-.08 0-.16-.011-.241-.033l-1.214-.337a.9.9 0 1 1 .482-1.733l1.213.337a.9.9 0 0 1-.24 1.766zm-3.293-.915c-.08 0-.16-.01-.241-.033l-1.213-.337a.9.9 0 1 1 .481-1.733l1.213.337a.9.9 0 0 1-.24 1.766zm-3.293-.914c-.079 0-.16-.011-.24-.034l-1.214-.337a.9.9 0 1 1 .482-1.733l1.213.337a.9.9 0 0 1-.24 1.767zm95.851-38.175a.63.63 0 0 1-.165-1.237l1.215-.332a.63.63 0 1 1 .33 1.215l-1.214.331a.627.627 0 0 1-.166.023zm3.297-.9a.63.63 0 0 1-.165-1.236l1.215-.332a.63.63 0 1 1 .33 1.215l-1.214.331a.627.627 0 0 1-.166.022zm3.297-.899a.63.63 0 0 1-.165-1.237l1.215-.33a.63.63 0 1 1 .331 1.214l-1.215.331a.628.628 0 0 1-.166.022zm42.688-8.993a.63.63 0 0 1-.59-.412l-.436-1.181a.63.63 0 0 1 1.182-.436l.435 1.182a.63.63 0 0 1-.59.847zm-1.18-3.207a.63.63 0 0 1-.592-.412l-.435-1.181a.63.63 0 0 1 1.181-.435l.436 1.18a.63.63 0 0 1-.59.848zm-1.182-3.207a.63.63 0 0 1-.591-.412l-.155-.421a.63.63 0 0 1 1.181-.435l.155.421a.63.63 0 0 1-.59.847zm16.032-4.378a.63.63 0 0 1-.479-1.038l.816-.958a.63.63 0 0 1 .959.816l-.817.959a.628.628 0 0 1-.48.221zm2.216-2.601a.63.63 0 0 1-.479-1.038l.816-.959a.63.63 0 0 1 .959.817l-.817.958a.629.629 0 0 1-.48.222zm2.216-2.602a.628.628 0 0 1-.48-1.037l.817-.959a.63.63 0 1 1 .959.816l-.817.959a.628.628 0 0 1-.48.221zm2.216-2.601a.63.63 0 0 1-.479-1.038l.817-.958a.63.63 0 0 1 .958.816l-.816.959a.63.63 0 0 1-.48.22zm-6.647 2.768a.629.629 0 0 1-.51-.258l-.742-1.017a.63.63 0 1 1 1.016-.743l.743 1.017a.63.63 0 0 1-.507 1.001zm-2.017-2.76a.629.629 0 0 1-.509-.257l-.742-1.017a.63.63 0 1 1 1.016-.743l.743 1.017a.63.63 0 0 1-.508 1zm-2.016-2.758a.629.629 0 0 1-.509-.258l-.743-1.017a.63.63 0 1 1 1.017-.743l.743 1.017a.63.63 0 0 1-.508 1zm-2.016-2.76a.628.628 0 0 1-.509-.258l-.743-1.016a.63.63 0 1 1 1.017-.743l.743 1.017a.63.63 0 0 1-.508 1zm45.95 26.061a.608.608 0 0 1-.07-.004l-1.252-.139a.63.63 0 1 1 .14-1.25l1.25.138a.63.63 0 0 1-.068 1.255zm-3.397-.377a.608.608 0 0 1-.07-.004l-1.251-.139a.63.63 0 1 1 .139-1.251l1.251.139a.63.63 0 0 1-.069 1.255zm-3.77.22a.63.63 0 0 1-.63-.629v-1.259a.63.63 0 1 1 1.26 0v1.26a.63.63 0 0 1-.63.629zm0-3.417a.63.63 0 0 1-.63-.63v-1.258a.63.63 0 1 1 1.26 0V42.8a.63.63 0 0 1-.63.63zm0-3.417a.63.63 0 0 1-.63-.63v-1.079a.63.63 0 1 1 1.26 0v1.08a.63.63 0 0 1-.63.629zm11.87 27.609a.9.9 0 0 1-.822-1.263l.508-1.152a.9.9 0 1 1 1.645.726l-.508 1.152a.9.9 0 0 1-.823.537zm1.38-3.127a.9.9 0 0 1-.822-1.263l.507-1.151a.9.9 0 0 1 1.646.725l-.508 1.152a.9.9 0 0 1-.824.537zm1.379-3.126a.9.9 0 0 1-.822-1.263l.507-1.152a.9.9 0 0 1 1.646.726l-.508 1.152a.9.9 0 0 1-.823.537zm1.38-3.127a.9.9 0 0 1-.823-1.263l.508-1.151a.9.9 0 0 1 1.646.725l-.509 1.152a.9.9 0 0 1-.823.537zm112.05 20.98a.63.63 0 0 1-.157-1.238l1.22-.314a.63.63 0 1 1 .313 1.22l-1.22.313a.633.633 0 0 1-.157.02zm3.31-.85a.63.63 0 0 1-.157-1.24l1.219-.313a.63.63 0 0 1 .313 1.22l-1.219.313a.635.635 0 0 1-.157.02zm3.309-.851a.63.63 0 0 1-.157-1.24l1.22-.313a.63.63 0 0 1 .313 1.22l-1.219.313a.635.635 0 0 1-.157.02zm3.31-.851a.63.63 0 0 1-.157-1.24l1.22-.313a.63.63 0 0 1 .313 1.22l-1.22.313a.635.635 0 0 1-.157.02zm-12.088 6.87a.629.629 0 0 1-.574-.887l.515-1.15a.63.63 0 0 1 1.15.515l-.516 1.15a.63.63 0 0 1-.575.372zm1.398-3.119a.629.629 0 0 1-.574-.887l.515-1.149a.63.63 0 0 1 1.149.515l-.515 1.15a.63.63 0 0 1-.575.371zm1.398-3.118a.629.629 0 0 1-.574-.887l.515-1.15a.63.63 0 0 1 1.149.516l-.515 1.149a.63.63 0 0 1-.575.372zm1.398-3.119a.63.63 0 0 1-.574-.887l.483-1.076a.63.63 0 0 1 1.148.515l-.482 1.076a.63.63 0 0 1-.575.373zm-7.79 7.917a.63.63 0 0 1-.623-.724l.189-1.245a.63.63 0 0 1 1.245.189l-.189 1.245a.63.63 0 0 1-.622.535zm.512-3.38a.63.63 0 0 1-.623-.724l.189-1.244a.63.63 0 0 1 1.245.189l-.19 1.245a.63.63 0 0 1-.62.535zm.512-3.378a.63.63 0 0 1-.623-.724l.189-1.244a.63.63 0 0 1 1.245.188l-.189 1.245a.63.63 0 0 1-.622.535zm.512-3.379a.63.63 0 0 1-.623-.724l.189-1.244a.63.63 0 1 1 1.244.188l-.188 1.245a.63.63 0 0 1-.622.535zm-36.43 1.143h-.014a.63.63 0 0 1-.616-.643l.027-1.258a.63.63 0 0 1 1.259.026l-.027 1.26a.631.631 0 0 1-.63.615zm.073-3.416h-.014a.63.63 0 0 1-.616-.643l.027-1.259a.63.63 0 1 1 1.259.027l-.027 1.259a.631.631 0 0 1-.63.616zm.073-3.417h-.014a.63.63 0 0 1-.616-.643l.027-1.258a.63.63 0 1 1 1.259.027l-.027 1.258a.631.631 0 0 1-.63.616zm.073-3.416h-.014a.63.63 0 0 1-.616-.643l.027-1.259a.63.63 0 0 1 1.259.027l-.027 1.259a.631.631 0 0 1-.63.616zm.073-3.417h-.014a.63.63 0 0 1-.616-.643l.027-1.259a.63.63 0 0 1 1.26.027l-.028 1.259a.631.631 0 0 1-.63.616zm2.664 19.212a.608.608 0 0 1-.13-.014l-1.232-.258a.63.63 0 1 1 .258-1.232l1.233.258a.63.63 0 0 1-.13 1.246zm-3.345-.701a.608.608 0 0 1-.13-.014l-1.232-.258a.63.63 0 1 1 .259-1.232l1.232.258a.63.63 0 0 1-.129 1.246zm-3.344-.702a.68.68 0 0 1-.13-.013l-1.232-.259a.63.63 0 1 1 .258-1.232l1.232.259a.63.63 0 0 1-.128 1.245zm-3.345-.701a.608.608 0 0 1-.13-.014l-1.232-.258a.63.63 0 1 1 .258-1.232l1.233.259a.63.63 0 0 1-.129 1.245zm-3.345-.701a.61.61 0 0 1-.13-.014l-1.232-.258a.63.63 0 1 1 .259-1.232l1.232.258a.63.63 0 0 1-.129 1.246zm-3.344-.702a.61.61 0 0 1-.13-.013l-1.232-.259a.63.63 0 1 1 .258-1.232l1.232.259a.63.63 0 0 1-.128 1.245zm-3.345-.7a.61.61 0 0 1-.13-.014l-1.232-.259a.63.63 0 1 1 .258-1.232l1.233.258a.63.63 0 0 1-.129 1.246zm-136.58 104.81a.627.627 0 0 1-.32-.088l-1.084-.64a.63.63 0 1 1 .64-1.084l1.085.64a.63.63 0 0 1-.32 1.171zm-2.944-1.737a.627.627 0 0 1-.319-.087l-1.084-.64a.63.63 0 0 1 .64-1.084l1.084.64a.63.63 0 0 1-.32 1.171zm-2.943-1.736a.626.626 0 0 1-.32-.087l-1.084-.64a.63.63 0 0 1 .64-1.084l1.084.64a.63.63 0 0 1-.32 1.171zm-2.944-1.736a.628.628 0 0 1-.319-.087l-1.084-.64a.63.63 0 1 1 .64-1.084l1.084.64a.63.63 0 0 1-.32 1.171zm-2.943-1.736a.626.626 0 0 1-.32-.087l-1.084-.64a.63.63 0 0 1 .64-1.084l1.084.64a.63.63 0 0 1-.32 1.171zm14.634 13.373a.9.9 0 0 1-.85-.606l-.41-1.19a.9.9 0 1 1 1.7-.586l.41 1.19a.9.9 0 0 1-.85 1.192zm-1.113-3.23a.9.9 0 0 1-.85-.608l-.41-1.19a.9.9 0 1 1 1.7-.585l.41 1.19a.9.9 0 0 1-.85 1.192zm-1.112-3.232a.9.9 0 0 1-.85-.607l-.41-1.19a.9.9 0 0 1 1.7-.586l.41 1.19a.9.9 0 0 1-.85 1.193zm-1.113-3.231a.9.9 0 0 1-.85-.607l-.41-1.19a.9.9 0 0 1 1.7-.586l.41 1.19a.9.9 0 0 1-.85 1.193zm-1.112-3.232a.9.9 0 0 1-.85-.606l-.41-1.19a.9.9 0 1 1 1.7-.586l.41 1.19a.9.9 0 0 1-.85 1.192zm-1.112-3.23a.9.9 0 0 1-.85-.608l-.41-1.19a.9.9 0 0 1 1.7-.585l.41 1.19a.9.9 0 0 1-.85 1.192zm-1.113-3.232a.9.9 0 0 1-.85-.607l-.41-1.19a.9.9 0 1 1 1.7-.586l.41 1.19a.9.9 0 0 1-.85 1.193zm-96.455-.831a.9.9 0 0 1-.598-1.572l.941-.836a.899.899 0 1 1 1.195 1.344l-.94.837a.896.896 0 0 1-.598.227zm2.554-2.27a.9.9 0 0 1-.598-1.572l.941-.836a.9.9 0 1 1 1.195 1.344l-.94.836a.895.895 0 0 1-.598.228zm2.554-2.27a.9.9 0 0 1-.598-1.572l.942-.837a.9.9 0 0 1 1.195 1.345l-.942.836a.895.895 0 0 1-.597.227zm2.555-2.271a.9.9 0 0 1-.598-1.572l.94-.836a.9.9 0 1 1 1.196 1.344l-.941.837a.895.895 0 0 1-.597.227zm2.554-2.27a.9.9 0 0 1-.598-1.571l.941-.837a.899.899 0 1 1 1.195 1.344l-.94.836a.896.896 0 0 1-.598.228zm2.554-2.27a.9.9 0 0 1-.598-1.571l.18-.16a.9.9 0 0 1 1.194 1.343l-.179.16a.897.897 0 0 1-.597.227zm29.317-20.305a.9.9 0 0 1-.893-1.011l.156-1.25a.9.9 0 0 1 1.784.224l-.156 1.25a.9.9 0 0 1-.891.787zm.424-3.39a.9.9 0 0 1-.894-1.011l.156-1.25a.899.899 0 1 1 1.785.223l-.156 1.25a.9.9 0 0 1-.891.787zm.424-3.392a.9.9 0 0 1-.893-1.01l.156-1.25a.9.9 0 0 1 1.784.223l-.156 1.25a.9.9 0 0 1-.891.787zm.424-3.39a.9.9 0 0 1-.894-1.01l.156-1.25a.9.9 0 0 1 1.785.222l-.156 1.25a.9.9 0 0 1-.891.787zM145.736 66.9a.9.9 0 0 1-.85-1.192l.408-1.19a.9.9 0 1 1 1.701.584l-.409 1.191a.9.9 0 0 1-.85.607zm1.11-3.232a.899.899 0 0 1-.85-1.191l.41-1.191a.899.899 0 1 1 1.7.585l-.409 1.19a.9.9 0 0 1-.85.607zm1.111-3.231a.898.898 0 0 1-.85-1.192l.41-1.19a.9.9 0 1 1 1.7.584l-.41 1.19a.9.9 0 0 1-.85.608zm1.111-3.232a.9.9 0 0 1-.85-1.192l.41-1.19a.9.9 0 1 1 1.7.584l-.41 1.19a.9.9 0 0 1-.85.608zm1.111-3.232a.9.9 0 0 1-.85-1.192l.41-1.19a.9.9 0 1 1 1.7.584l-.41 1.191a.9.9 0 0 1-.85.607zm1.111-3.232a.9.9 0 0 1-.85-1.192l.409-1.19a.899.899 0 1 1 1.7.584l-.408 1.191a.9.9 0 0 1-.85.607zm1.111-3.231a.9.9 0 0 1-.85-1.192l.41-1.19a.9.9 0 0 1 1.7.584l-.41 1.19a.9.9 0 0 1-.85.608zm1.111-3.232a.9.9 0 0 1-.85-1.192l.137-.4a.9.9 0 0 1 1.701.585l-.138.4a.9.9 0 0 1-.85.607zm-19.12 10.025h-.03l-1.258-.042a.9.9 0 0 1 .058-1.798l1.259.042a.9.9 0 0 1-.029 1.798zm-3.416-.112h-.03l-1.258-.042a.9.9 0 1 1 .059-1.797l1.258.04a.9.9 0 0 1-.028 1.799zm-3.415-.112h-.03l-1.258-.042a.9.9 0 1 1 .059-1.798l1.258.042a.9.9 0 0 1-.03 1.798zm-3.416-.112h-.03l-1.258-.042a.9.9 0 1 1 .06-1.797l1.257.04a.9.9 0 0 1-.028 1.799zm-3.415-.112h-.03l-1.259-.042a.9.9 0 1 1 .06-1.797l1.257.041a.9.9 0 0 1-.028 1.798zm-3.416-.112h-.03l-1.258-.042a.9.9 0 0 1 .059-1.798l1.258.042a.9.9 0 0 1-.029 1.798zm-3.415-.112h-.03l-1.259-.042a.9.9 0 1 1 .06-1.797l1.257.04a.9.9 0 0 1-.028 1.799zm.898 16.506a.9.9 0 0 1-.08-1.795l1.253-.114a.9.9 0 0 1 .163 1.791l-1.254.114a.761.761 0 0 1-.082.004zm3.403-.31a.9.9 0 0 1-.08-1.795l1.254-.114a.899.899 0 1 1 .163 1.792l-1.254.114a.767.767 0 0 1-.083.004zm3.404-.309a.9.9 0 0 1-.08-1.795l1.253-.114a.9.9 0 0 1 .163 1.791l-1.254.114a.765.765 0 0 1-.082.004zm3.403-.31a.9.9 0 0 1-.08-1.794l1.253-.114a.9.9 0 0 1 .163 1.79l-1.253.115a.77.77 0 0 1-.083.004zm3.403-.309a.9.9 0 0 1-.08-1.795l1.254-.114a.9.9 0 0 1 .162 1.792l-1.253.114a.759.759 0 0 1-.083.004zm9.17 38.355a.9.9 0 0 1-.85-1.195l.415-1.19a.9.9 0 0 1 1.698.593l-.414 1.19a.9.9 0 0 1-.85.602zm1.125-3.226a.899.899 0 0 1-.849-1.196l.415-1.189a.9.9 0 0 1 1.698.593l-.415 1.188a.9.9 0 0 1-.849.604zm1.126-3.227a.9.9 0 0 1-.85-1.196l.416-1.188a.9.9 0 0 1 1.698.592l-.415 1.189a.9.9 0 0 1-.849.603zm1.125-3.227a.9.9 0 0 1-.849-1.195l.415-1.189a.9.9 0 0 1 1.698.592l-.415 1.19a.9.9 0 0 1-.849.602zm1.126-3.226a.899.899 0 0 1-.85-1.196l.416-1.189a.9.9 0 0 1 1.698.593l-.415 1.188a.9.9 0 0 1-.85.604zm14.803 16.437a.9.9 0 0 1-.897-.852l-.001-.018a.9.9 0 1 1 1.796-.096v.018a.9.9 0 0 1-.9.948zm-.115-2.174a.9.9 0 0 1-.897-.852l-.066-1.258a.9.9 0 0 1 1.796-.094l.066 1.257a.9.9 0 0 1-.898.946zm-.179-3.413a.9.9 0 0 1-.897-.852l-.066-1.258a.9.9 0 0 1 1.796-.094l.066 1.257a.9.9 0 0 1-.899.947zm-.18-3.413a.9.9 0 0 1-.897-.852l-.066-1.257a.9.9 0 0 1 1.796-.094l.066 1.257a.9.9 0 0 1-.899.946zm-.18-3.412a.9.9 0 0 1-.897-.852l-.066-1.258a.9.9 0 0 1 1.797-.094l.066 1.257a.9.9 0 0 1-.9.947zm15.763 10.974a.899.899 0 0 1-.85-1.193l.254-.74a.9.9 0 0 1 1.7.586l-.254.74a.9.9 0 0 1-.85.607zm.958-2.78a.898.898 0 0 1-.85-1.193l.41-1.19a.9.9 0 1 1 1.7.586l-.41 1.19a.9.9 0 0 1-.85.606zm1.114-3.231a.899.899 0 0 1-.85-1.193l.41-1.19a.9.9 0 0 1 1.701.586l-.41 1.19a.9.9 0 0 1-.85.607zm1.114-3.231a.898.898 0 0 1-.85-1.193l.41-1.19a.9.9 0 0 1 1.701.586l-.41 1.19a.9.9 0 0 1-.85.607zm31.492-7.333a.895.895 0 0 1-.56-.197l-.984-.787a.9.9 0 0 1 1.124-1.404l.983.786a.9.9 0 0 1-.563 1.602zm-2.668-2.135a.896.896 0 0 1-.561-.197l-.983-.786a.9.9 0 0 1 1.123-1.405l.983.787a.9.9 0 0 1-.562 1.601zm-2.668-2.135a.895.895 0 0 1-.562-.197l-.983-.786a.9.9 0 0 1 1.124-1.405l.983.787a.9.9 0 0 1-.562 1.601zm-2.669-2.135a.896.896 0 0 1-.561-.197l-.983-.786a.9.9 0 0 1 1.123-1.405l.983.787a.9.9 0 0 1-.562 1.601zM196 84.234a.895.895 0 0 1-.562-.197l-.983-.787a.9.9 0 0 1 1.124-1.405l.983.787a.9.9 0 0 1-.562 1.602zm24.182-9.063a.895.895 0 0 1-.46-.127l-1.082-.645a.9.9 0 0 1 .922-1.545l1.081.645a.9.9 0 0 1-.461 1.672zm-2.935-1.75a.895.895 0 0 1-.46-.128l-1.081-.645a.9.9 0 0 1 .921-1.544l1.081.645a.9.9 0 0 1-.461 1.672zm-2.935-1.751a.895.895 0 0 1-.46-.127l-1.081-.645a.9.9 0 0 1 .92-1.545l1.082.645a.9.9 0 0 1-.461 1.672zm-2.935-1.75a.895.895 0 0 1-.46-.128l-1.081-.645a.9.9 0 0 1 .921-1.545l1.081.645a.9.9 0 0 1-.46 1.672zm-2.935-1.751a.895.895 0 0 1-.46-.128l-1.081-.645a.9.9 0 1 1 .921-1.544l1.081.645a.9.9 0 0 1-.46 1.672zm-2.935-1.751a.895.895 0 0 1-.46-.127l-1.08-.645a.9.9 0 1 1 .92-1.545l1.082.645a.9.9 0 0 1-.462 1.672zm-2.935-1.75a.895.895 0 0 1-.46-.128l-1.08-.645a.9.9 0 0 1 .92-1.545l1.082.645a.9.9 0 0 1-.462 1.672zm13.668-7.84a.9.9 0 0 1-.636-1.535l.407-.407a.9.9 0 0 1 1.272 1.272l-.407.406a.896.896 0 0 1-.636.264zm1.933-1.933a.9.9 0 0 1-.636-1.535l.89-.89a.9.9 0 0 1 1.272 1.271l-.89.89a.896.896 0 0 1-.636.264zm2.416-2.416a.9.9 0 0 1-.636-1.535l.89-.89a.9.9 0 0 1 1.272 1.27l-.89.891a.896.896 0 0 1-.636.264zm2.417-2.417a.9.9 0 0 1-.636-1.535l.89-.89a.9.9 0 0 1 1.272 1.272l-.89.89a.896.896 0 0 1-.636.263zm2.416-2.416a.9.9 0 0 1-.636-1.535l.89-.89a.9.9 0 0 1 1.272 1.271l-.89.89a.896.896 0 0 1-.636.264zm44.056 57.745a.9.9 0 0 1-.791-1.326l.176-.326a.9.9 0 0 1 1.583.852l-.175.327a.898.898 0 0 1-.793.473zm1.2-2.227a.9.9 0 0 1-.791-1.326l.596-1.108a.9.9 0 1 1 1.584.853l-.597 1.108a.899.899 0 0 1-.793.473zm1.62-3.009a.9.9 0 0 1-.791-1.326l.596-1.108a.9.9 0 0 1 1.584.853l-.597 1.108a.9.9 0 0 1-.793.473zm1.62-3.009a.9.9 0 0 1-.79-1.326l.596-1.108a.9.9 0 0 1 1.583.853l-.597 1.108a.9.9 0 0 1-.792.473zm-62.785 38.706a.899.899 0 0 1-.672-1.497l.836-.94a.9.9 0 1 1 1.344 1.194l-.836.941a.898.898 0 0 1-.673.302zm2.269-2.555a.9.9 0 0 1-.672-1.497l.836-.94a.9.9 0 1 1 1.345 1.194l-.836.941a.897.897 0 0 1-.673.302zm2.27-2.555a.9.9 0 0 1-.672-1.497l.835-.94a.9.9 0 1 1 1.345 1.193l-.836.942a.898.898 0 0 1-.673.302zm2.268-2.555a.9.9 0 0 1-.672-1.497l.837-.941a.9.9 0 1 1 1.344 1.194l-.836.942a.897.897 0 0 1-.673.302zm2.27-2.555a.9.9 0 0 1-.672-1.497l.836-.941a.9.9 0 1 1 1.345 1.194l-.836.941a.898.898 0 0 1-.674.303zm2.27-2.555a.899.899 0 0 1-.672-1.497l.835-.941a.9.9 0 1 1 1.345 1.194l-.836.941a.898.898 0 0 1-.673.303zm22.607-15.803a.894.894 0 0 1-.351-.072l-1.159-.493a.9.9 0 1 1 .703-1.655l1.16.492a.9.9 0 0 1-.353 1.728zm-3.145-1.337a.895.895 0 0 1-.351-.072l-1.159-.492a.9.9 0 0 1 .704-1.656l1.158.493a.9.9 0 0 1-.352 1.727zm-3.145-1.337a.893.893 0 0 1-.352-.072l-1.158-.492a.9.9 0 0 1 .703-1.656l1.159.493a.9.9 0 0 1-.352 1.727zm-3.145-1.337a.895.895 0 0 1-.352-.071l-1.158-.493a.9.9 0 1 1 .703-1.655l1.159.492a.9.9 0 0 1-.352 1.728zm-3.145-1.336a.895.895 0 0 1-.352-.072l-1.158-.492a.9.9 0 1 1 .703-1.656l1.159.493a.9.9 0 0 1-.352 1.727zm63.59 34.04a.894.894 0 0 1-.524-.169l-.673-.484a.9.9 0 1 1 1.05-1.46l.674.485a.9.9 0 0 1-.526 1.629zm-2.424-1.745a.894.894 0 0 1-.525-.17l-1.021-.735a.9.9 0 1 1 1.05-1.46l1.022.736a.9.9 0 0 1-.526 1.63zm-2.773-1.997a.895.895 0 0 1-.525-.17l-1.022-.735a.9.9 0 1 1 1.051-1.46l1.022.736a.9.9 0 0 1-.526 1.63zm-2.774-1.996a.895.895 0 0 1-.524-.17l-1.022-.736a.9.9 0 0 1 1.05-1.46l1.022.736a.9.9 0 0 1-.526 1.63zm-18.287-13.326a.898.898 0 0 1-.442-1.683l1.096-.619a.9.9 0 1 1 .884 1.567l-1.097.618a.894.894 0 0 1-.44.117zm2.977-1.68a.899.899 0 0 1-.443-1.682l1.097-.619a.9.9 0 0 1 .884 1.567l-1.097.619a.9.9 0 0 1-.441.116zm2.976-1.678a.898.898 0 0 1-.442-1.683l1.096-.619a.9.9 0 0 1 .884 1.567l-1.097.618a.897.897 0 0 1-.44.117zm2.977-1.68a.899.899 0 0 1-.443-1.682l1.097-.619a.9.9 0 1 1 .883 1.567l-1.096.619a.898.898 0 0 1-.441.116zm2.976-1.678a.899.899 0 0 1-.443-1.683l1.097-.619a.9.9 0 1 1 .884 1.567l-1.097.619a.897.897 0 0 1-.44.116zm21.547-12.35a.9.9 0 0 1-.258-1.76l.972-.292a.9.9 0 0 1 .517 1.723l-.972.291a.897.897 0 0 1-.259.039zm3.04-.911a.9.9 0 0 1-.259-1.761l1.206-.362a.9.9 0 0 1 .517 1.723l-1.206.362a.911.911 0 0 1-.259.038zm3.273-.982a.9.9 0 0 1-.259-1.761l1.206-.362a.9.9 0 1 1 .517 1.723l-1.206.362a.904.904 0 0 1-.258.038zm3.273-.982a.9.9 0 0 1-.258-1.761l1.206-.362a.9.9 0 0 1 .517 1.723l-1.206.361a.897.897 0 0 1-.26.039zm29.769-8.204a.898.898 0 0 1-.72-.36l-.756-1.007a.9.9 0 1 1 1.44-1.08l.755 1.008a.9.9 0 0 1-.72 1.439zm-2.05-2.734a.898.898 0 0 1-.72-.36l-.756-1.007a.9.9 0 0 1 1.439-1.079l.755 1.007a.9.9 0 0 1-.719 1.44zm-2.05-2.734a.898.898 0 0 1-.721-.36l-.756-1.007a.9.9 0 0 1 1.44-1.079l.755 1.007a.9.9 0 0 1-.719 1.44zm-2.051-2.734a.898.898 0 0 1-.72-.36l-.756-1.007a.9.9 0 1 1 1.439-1.079l.755 1.007a.9.9 0 0 1-.718 1.44zm-2.05-2.734a.898.898 0 0 1-.72-.36l-.756-1.007a.9.9 0 1 1 1.439-1.079l.755 1.008a.9.9 0 0 1-.719 1.438zm-2.051-2.734a.898.898 0 0 1-.72-.36l-.756-1.006a.9.9 0 0 1 1.44-1.08l.755 1.008a.9.9 0 0 1-.72 1.438zm-2.05-2.733a.898.898 0 0 1-.72-.36l-.756-1.007a.9.9 0 0 1 1.439-1.08l.755 1.008a.9.9 0 0 1-.719 1.439zm-2.051-2.734a.898.898 0 0 1-.72-.36l-.756-1.007a.9.9 0 0 1 1.44-1.08l.755 1.008a.9.9 0 0 1-.719 1.439zm-2.05-2.734a.898.898 0 0 1-.72-.36l-.756-1.007a.9.9 0 1 1 1.439-1.08l.755 1.008a.9.9 0 0 1-.718 1.439zm-2.05-2.734a.898.898 0 0 1-.721-.36l-.755-1.007a.9.9 0 1 1 1.438-1.08l.756 1.008a.9.9 0 0 1-.719 1.439zm23.344 87.215a.63.63 0 0 1-.612-.485l-.087-.368a.63.63 0 0 1 1.225-.29l.087.368a.63.63 0 0 1-.613.775zm-.584-2.468a.63.63 0 0 1-.613-.485l-.29-1.225a.63.63 0 0 1 1.225-.29l.29 1.225a.63.63 0 0 1-.612.775zm-.788-3.326a.63.63 0 0 1-.612-.484l-.29-1.225a.63.63 0 1 1 1.225-.29l.29 1.225a.63.63 0 0 1-.613.774zm-.788-3.325a.63.63 0 0 1-.612-.485l-.29-1.225a.63.63 0 1 1 1.225-.29l.29 1.225a.63.63 0 0 1-.613.775zm-.787-3.326a.63.63 0 0 1-.612-.484l-.29-1.225a.63.63 0 0 1 1.225-.29l.29 1.225a.63.63 0 0 1-.613.774zm16.978 1.563a.849.849 0 0 1-.133-.01l-1.23-.182a.9.9 0 0 1 .263-1.779l1.23.182a.9.9 0 0 1-.13 1.789zm-3.365-.497a.851.851 0 0 1-.133-.01l-1.245-.184a.9.9 0 1 1 .263-1.78l1.245.185a.9.9 0 0 1-.13 1.789zm-3.38-.5a.851.851 0 0 1-.133-.01l-1.246-.183a.9.9 0 1 1 .263-1.78l1.246.184a.9.9 0 0 1-.13 1.79zm-3.381-.499a.851.851 0 0 1-.133-.01l-1.245-.184a.9.9 0 1 1 .262-1.78l1.246.185a.9.9 0 0 1-.13 1.789zm-3.381-.5a.849.849 0 0 1-.133-.01l-1.245-.183a.9.9 0 0 1 .263-1.78l1.245.184a.9.9 0 0 1-.13 1.79zm-3.38-.499a.851.851 0 0 1-.133-.01l-1.246-.184a.9.9 0 0 1 .263-1.779l1.246.184a.9.9 0 0 1-.13 1.79zm-3.381-.5a.851.851 0 0 1-.133-.01l-1.245-.183a.899.899 0 1 1 .262-1.78l1.246.185a.9.9 0 0 1-.13 1.789zm-3.381-.499a.851.851 0 0 1-.133-.01l-1.245-.184a.899.899 0 1 1 .263-1.779l1.245.184a.899.899 0 0 1-.13 1.79zm-3.38-.499a.849.849 0 0 1-.133-.01l-1.246-.184a.9.9 0 1 1 .263-1.78l1.245.185a.9.9 0 0 1-.13 1.789zm-3.381-.5a.849.849 0 0 1-.133-.01l-1.246-.183a.9.9 0 0 1 .263-1.78l1.246.184a.9.9 0 0 1-.13 1.79zm2.709-6.299a.9.9 0 0 1-.89-.772l-.112-.788a.9.9 0 0 1 1.78-.254l.113.788a.9.9 0 0 1-.891 1.026zm-.418-2.924a.9.9 0 0 1-.889-.772l-.178-1.247a.9.9 0 0 1 1.78-.254l.179 1.246a.9.9 0 0 1-.892 1.027zm-.483-3.384a.9.9 0 0 1-.89-.772l-.177-1.246a.9.9 0 0 1 1.78-.254l.178 1.246a.9.9 0 0 1-.891 1.026zm-5.573 37.963a.896.896 0 0 1-.585-.216l-.956-.82a.899.899 0 1 1 1.17-1.365l.957.82a.9.9 0 0 1-.585 1.581zm-2.595-2.224a.896.896 0 0 1-.585-.216l-.956-.82a.899.899 0 1 1 1.171-1.365l.956.82a.898.898 0 0 1-.586 1.581zm-2.595-2.224a.896.896 0 0 1-.585-.216l-.956-.82a.9.9 0 0 1 1.17-1.365l.956.82a.9.9 0 0 1-.585 1.581zm-8.479 18.477c-.019 0-.039 0-.059-.002l-1.256-.08a.9.9 0 1 1 .115-1.795l1.257.08a.899.899 0 0 1-.057 1.797zm-3.41-.22c-.019 0-.039 0-.059-.002l-1.256-.08a.9.9 0 1 1 .115-1.795l1.257.08a.899.899 0 0 1-.057 1.797zm-3.41-.22-.06-.001-1.256-.082a.9.9 0 1 1 .116-1.794l1.257.08a.9.9 0 0 1-.057 1.798zm-3.41-.22c-.02 0-.04 0-.06-.002l-.92-.059a.9.9 0 0 1 .116-1.795l.92.06a.9.9 0 0 1-.057 1.796zm-41.212-3.296a.898.898 0 0 1-.833-1.236l.047-.117a.9.9 0 1 1 1.668.672l-.047.117a.9.9 0 0 1-.835.564zm.855-2.119a.9.9 0 0 1-.834-1.236l.47-1.168a.899.899 0 1 1 1.67.673l-.472 1.168a.9.9 0 0 1-.834.563zm1.278-3.17a.9.9 0 0 1-.834-1.236l.47-1.167a.898.898 0 1 1 1.669.673l-.47 1.167a.9.9 0 0 1-.835.564zm1.278-3.169a.898.898 0 0 1-.834-1.236l.47-1.167a.9.9 0 0 1 1.67.672l-.472 1.168a.9.9 0 0 1-.834.563zm1.278-3.169a.9.9 0 0 1-.834-1.236l.47-1.168a.899.899 0 1 1 1.67.673l-.472 1.168a.9.9 0 0 1-.834.563zm1.278-3.17a.9.9 0 0 1-.834-1.236l.47-1.167a.899.899 0 1 1 1.67.673l-.472 1.167a.9.9 0 0 1-.834.564zm1.278-3.169a.9.9 0 0 1-.834-1.236l.47-1.167a.9.9 0 1 1 1.669.672l-.471 1.168a.9.9 0 0 1-.834.563zm1.278-3.17a.9.9 0 0 1-.834-1.236l.47-1.167a.9.9 0 0 1 1.669.673l-.47 1.167a.899.899 0 0 1-.835.564zm-54.566 45.597a.9.9 0 0 1-.82-.528l-.52-1.146a.9.9 0 1 1 1.637-.744l.521 1.146a.896.896 0 0 1-.818 1.272zm-1.414-3.112a.9.9 0 0 1-.82-.527l-.52-1.146a.899.899 0 1 1 1.637-.744l.521 1.146a.895.895 0 0 1-.818 1.272zm-1.414-3.11a.9.9 0 0 1-.82-.528l-.52-1.146a.899.899 0 1 1 1.637-.744l.52 1.146a.895.895 0 0 1-.817 1.272zm88.584 21.396a.899.899 0 0 1-.456-1.676l1.086-.637a.9.9 0 1 1 .91 1.552l-1.087.637a.893.893 0 0 1-.453.124zm2.948-1.729a.899.899 0 0 1-.456-1.675l1.086-.637a.899.899 0 1 1 .91 1.552l-1.086.637a.895.895 0 0 1-.454.123zm2.948-1.728a.898.898 0 0 1-.456-1.675l1.086-.637a.9.9 0 1 1 .91 1.552l-1.086.636a.895.895 0 0 1-.454.124zm2.948-1.728a.899.899 0 0 1-.456-1.676l1.087-.636a.9.9 0 1 1 .91 1.551l-1.087.637a.893.893 0 0 1-.454.124zm-235.77-36.01a.897.897 0 0 1-.609-.238l-.926-.852a.9.9 0 1 1 1.218-1.324l.926.853a.9.9 0 0 1-.609 1.56zm-2.515-2.314a.897.897 0 0 1-.609-.237l-.926-.853a.9.9 0 1 1 1.218-1.323l.926.852a.9.9 0 0 1-.609 1.561zm-2.515-2.314a.897.897 0 0 1-.609-.237l-.926-.852a.9.9 0 0 1 1.218-1.324l.926.852a.9.9 0 0 1-.609 1.561zm-2.515-2.313a.897.897 0 0 1-.609-.238l-.926-.852a.899.899 0 1 1 1.218-1.324l.926.853a.899.899 0 0 1-.609 1.56zm36.292-47.702a.9.9 0 0 1-.813-1.282l.536-1.14a.9.9 0 1 1 1.627.766l-.536 1.14a.9.9 0 0 1-.814.516zm1.455-3.092a.9.9 0 0 1-.813-1.282l.536-1.14a.9.9 0 1 1 1.628.766l-.536 1.14a.9.9 0 0 1-.815.515zm-13.493-5.456a.901.901 0 0 1-.838-1.226l.082-.21a.9.9 0 0 1 1.676.652l-.082.21a.9.9 0 0 1-.838.574zm.864-2.222a.9.9 0 0 1-.838-1.225l.456-1.174a.9.9 0 0 1 1.677.652l-.456 1.174a.9.9 0 0 1-.839.573zm1.239-3.185a.9.9 0 0 1-.838-1.225l.456-1.174a.9.9 0 0 1 1.676.652l-.456 1.174a.9.9 0 0 1-.838.573zm1.238-3.185a.9.9 0 0 1-.838-1.225l.457-1.174a.9.9 0 1 1 1.676.652l-.456 1.174a.9.9 0 0 1-.839.573zm1.239-3.185a.9.9 0 0 1-.838-1.225l.456-1.174a.9.9 0 0 1 1.677.652l-.457 1.174a.9.9 0 0 1-.838.573zm-19.849 11.984a.9.9 0 0 1-.89-.784l-.163-1.248a.9.9 0 1 1 1.784-.231l.162 1.248a.9.9 0 0 1-.893 1.016zm-.44-3.389a.9.9 0 0 1-.89-.784l-.162-1.248a.9.9 0 1 1 1.784-.231l.162 1.248a.9.9 0 0 1-.893 1.016zM75.63 98.1a.9.9 0 0 1-.89-.784l-.162-1.248a.9.9 0 1 1 1.784-.231l.162 1.248a.9.9 0 0 1-.894 1.016zm-.44-3.389a.9.9 0 0 1-.89-.784l-.161-1.248a.9.9 0 1 1 1.783-.231l.162 1.248a.9.9 0 0 1-.893 1.016zm-.438-3.389a.9.9 0 0 1-.891-.784l-.162-1.248a.9.9 0 1 1 1.784-.231l.162 1.248a.9.9 0 0 1-.893 1.016zm-.44-3.389a.9.9 0 0 1-.89-.784l-.162-1.248a.9.9 0 1 1 1.783-.231l.162 1.248a.9.9 0 0 1-.893 1.016zm-43.687 114.22a.9.9 0 0 1-.864-1.149l.349-1.21a.9.9 0 0 1 1.728.5l-.349 1.209a.9.9 0 0 1-.864.65zm.947-3.283a.9.9 0 0 1-.865-1.149l.35-1.21a.9.9 0 0 1 1.728.499l-.349 1.21a.9.9 0 0 1-.864.65zm.948-3.284a.9.9 0 0 1-.864-1.149l.348-1.21a.9.9 0 0 1 1.729.5l-.35 1.209a.9.9 0 0 1-.863.65zm.947-3.283a.899.899 0 0 1-.865-1.149l.35-1.21a.9.9 0 1 1 1.727.499l-.349 1.21a.9.9 0 0 1-.863.65zm.947-3.284a.9.9 0 0 1-.864-1.149l.348-1.21a.9.9 0 0 1 1.728.5l-.348 1.209a.9.9 0 0 1-.864.65zm.947-3.283a.9.9 0 0 1-.865-1.149l.35-1.21a.9.9 0 1 1 1.728.499l-.35 1.21a.9.9 0 0 1-.863.65zm-16.607-11.281a.897.897 0 0 1-.68-.312l-.135-.155a.9.9 0 1 1 1.362-1.175l.133.155a.9.9 0 0 1-.68 1.487zm-1.544-1.789a.897.897 0 0 1-.681-.311l-.823-.953a.9.9 0 1 1 1.361-1.176l.823.953a.9.9 0 0 1-.68 1.487zm-2.234-2.586a.897.897 0 0 1-.68-.312l-.824-.952a.9.9 0 0 1 1.362-1.176l.822.953a.9.9 0 0 1-.68 1.487zm-2.234-2.586a.898.898 0 0 1-.68-.312l-.824-.953a.9.9 0 0 1 1.362-1.175l.822.952a.9.9 0 0 1-.68 1.488zm7.452 20.63c-.032 0-.065-.002-.097-.005l-.038-.004a.9.9 0 0 1 .193-1.789l.037.004a.9.9 0 0 1-.095 1.794zm-2.184-.23c-.032 0-.064-.002-.095-.005l-1.253-.132a.9.9 0 0 1 .189-1.789l1.252.132a.9.9 0 0 1-.093 1.794zm-3.399-.358c-.031 0-.063-.002-.095-.005l-1.252-.132a.9.9 0 0 1 .188-1.788l1.252.131a.9.9 0 0 1-.093 1.794zm14.391 14.972h-.022l-1.258-.03a.9.9 0 0 1 .043-1.798l1.258.03a.9.9 0 0 1-.02 1.798zm-3.416-.081h-.022l-1.259-.03a.9.9 0 0 1 .043-1.799l1.259.03a.9.9 0 0 1-.021 1.799zm-3.417-.082h-.021l-1.26-.03a.9.9 0 0 1 .044-1.798l1.259.03a.9.9 0 0 1-.022 1.798zm-3.416-.081h-.022l-1.258-.03a.9.9 0 0 1 .043-1.799l1.258.03a.9.9 0 0 1-.02 1.799zm-3.416-.081h-.022l-1.259-.03a.9.9 0 1 1 .043-1.799l1.259.03a.9.9 0 0 1-.021 1.799zm7.375 6.445a.899.899 0 0 1-.45-1.679l1.09-.629a.9.9 0 1 1 .899 1.558l-1.09.63a.894.894 0 0 1-.45.12zm2.96-1.708a.899.899 0 0 1-.45-1.679l1.09-.629a.9.9 0 1 1 .899 1.558l-1.09.63a.895.895 0 0 1-.45.12zm2.96-1.708a.899.899 0 0 1-.45-1.678l1.09-.63a.899.899 0 1 1 .9 1.559l-1.091.629a.895.895 0 0 1-.449.12zm2.96-1.707a.898.898 0 0 1-.45-1.679l.473-.273a.899.899 0 1 1 .898 1.558l-.472.273a.895.895 0 0 1-.449.12zm17.738 5.482a.9.9 0 0 1-.78-1.346l.625-1.092a.9.9 0 0 1 1.561.892l-.624 1.093a.899.899 0 0 1-.782.453zm1.696-2.967a.899.899 0 0 1-.78-1.345l.624-1.093a.9.9 0 0 1 1.562.892l-.625 1.093a.899.899 0 0 1-.781.453zm37.157-1.709a.9.9 0 0 1-.89-1.04l.198-1.244a.899.899 0 1 1 1.777.283l-.198 1.243a.9.9 0 0 1-.887.758zm.537-3.375a.9.9 0 0 1-.89-1.04l.198-1.244a.9.9 0 1 1 1.776.283l-.197 1.243a.9.9 0 0 1-.888.758zm.536-3.375a.9.9 0 0 1-.89-1.04l.199-1.244a.9.9 0 1 1 1.776.283l-.198 1.243a.9.9 0 0 1-.887.758zm.537-3.375a.9.9 0 0 1-.89-1.04l.2-1.244a.9.9 0 0 1 1.775.283l-.197 1.243a.9.9 0 0 1-.888.759zm.537-3.374a.9.9 0 0 1-.89-1.04l.199-1.245a.9.9 0 1 1 1.776.283l-.198 1.243a.9.9 0 0 1-.887.759zm30.824 39.154a.913.913 0 0 1-.18-.019l-1.234-.252a.9.9 0 1 1 .36-1.762l1.234.252a.9.9 0 0 1-.18 1.78zm-3.348-.685a.899.899 0 0 1-.18-.019l-1.234-.252a.899.899 0 1 1 .36-1.762l1.234.252a.9.9 0 0 1-.18 1.78zm-3.348-.685a.899.899 0 0 1-.18-.019l-1.234-.252a.9.9 0 0 1 .36-1.762l1.234.252a.9.9 0 0 1-.18 1.781zm-3.348-.685a.9.9 0 0 1-.18-.018l-1.234-.253a.9.9 0 1 1 .36-1.762l1.233.253a.9.9 0 0 1-.179 1.78zm-3.348-.685a.899.899 0 0 1-.18-.018l-1.234-.252a.9.9 0 1 1 .36-1.762l1.233.252a.9.9 0 0 1-.179 1.78zm-4.83 14.137a.9.9 0 0 1-.41-1.7l1.12-.573a.9.9 0 1 1 .82 1.6l-1.122.574a.897.897 0 0 1-.409.1zm3.042-1.556a.9.9 0 0 1-.41-1.7l1.12-.574a.899.899 0 1 1 .82 1.601l-1.121.574a.897.897 0 0 1-.41.099zm3.042-1.557a.9.9 0 0 1-.41-1.7l1.12-.573a.899.899 0 1 1 .82 1.601l-1.121.574a.894.894 0 0 1-.41.098zm3.042-1.556a.9.9 0 0 1-.41-1.7l1.12-.574a.899.899 0 1 1 .82 1.601l-1.12.574a.894.894 0 0 1-.41.099zm3.043-1.557a.9.9 0 0 1-.41-1.7l1.12-.573a.899.899 0 1 1 .82 1.6l-1.122.574a.894.894 0 0 1-.408.1zm3.042-1.556a.9.9 0 0 1-.41-1.7l.257-.132a.9.9 0 0 1 .818 1.602l-.256.131a.898.898 0 0 1-.409.099zm6.012 7.153a.628.628 0 0 1-.412-1.106l.953-.823a.63.63 0 0 1 .823.953l-.953.823a.628.628 0 0 1-.411.153zm2.586-2.234a.628.628 0 0 1-.412-1.106l.953-.823a.63.63 0 0 1 .823.953l-.953.823a.628.628 0 0 1-.411.153zm2.586-2.234a.628.628 0 0 1-.411-1.106l.953-.823a.63.63 0 0 1 .823.953l-.953.823a.628.628 0 0 1-.412.153zm2.587-2.233a.63.63 0 0 1-.412-1.106l.155-.134a.63.63 0 1 1 .823.953l-.155.134a.627.627 0 0 1-.411.153zm1.592 7.33a.9.9 0 0 1-.892-.793l-.148-1.25a.9.9 0 0 1 1.786-.213l.148 1.25a.9.9 0 0 1-.894 1.006zm-.404-3.393a.9.9 0 0 1-.892-.793l-.148-1.25a.9.9 0 0 1 1.785-.213l.15 1.25a.9.9 0 0 1-.895 1.006zm-.404-3.393a.9.9 0 0 1-.892-.794l-.148-1.25a.9.9 0 0 1 1.786-.212l.148 1.25a.9.9 0 0 1-.894 1.005zm-.404-3.394a.9.9 0 0 1-.892-.793l-.148-1.25a.9.9 0 1 1 1.786-.213l.148 1.25a.9.9 0 0 1-.894 1.006zm-.404-3.393a.9.9 0 0 1-.892-.793l-.148-1.25a.9.9 0 1 1 1.786-.213l.148 1.25a.9.9 0 0 1-.894 1.005zm18.163 4.22a.9.9 0 0 1-.883-.736l-.228-1.238a.9.9 0 0 1 1.769-.326l.228 1.238a.9.9 0 0 1-.886 1.063zm-.619-3.36a.9.9 0 0 1-.883-.737l-.228-1.238a.9.9 0 1 1 1.768-.326l.228 1.239a.9.9 0 0 1-.885 1.062zm-.619-3.36a.9.9 0 0 1-.883-.738l-.228-1.238a.9.9 0 1 1 1.768-.326l.229 1.239a.9.9 0 0 1-.886 1.062zm-.619-3.362a.9.9 0 0 1-.883-.736l-.228-1.239a.9.9 0 1 1 1.769-.325l.228 1.238a.9.9 0 0 1-.886 1.062zm-.619-3.36a.9.9 0 0 1-.884-.737l-.042-.226a.9.9 0 1 1 1.77-.326l.041.226a.9.9 0 0 1-.885 1.062zm16.506-5.983a.895.895 0 0 1-.597-.227l-.941-.836a.9.9 0 0 1 1.195-1.344l.94.836a.9.9 0 0 1-.597 1.572zm-2.554-2.27a.895.895 0 0 1-.597-.227l-.941-.836a.9.9 0 0 1 1.194-1.345l.941.837a.9.9 0 0 1-.597 1.571zm-2.554-2.27a.896.896 0 0 1-.597-.227l-.941-.837a.9.9 0 0 1 1.194-1.344l.941.836a.9.9 0 0 1-.597 1.572zm-19.618 4.552a.63.63 0 0 1-.626-.703l.147-1.25a.63.63 0 1 1 1.25.147l-.146 1.25a.63.63 0 0 1-.625.556zm.4-3.394a.63.63 0 0 1-.627-.704l.147-1.25a.629.629 0 1 1 1.25.147l-.147 1.25a.63.63 0 0 1-.624.556zm.399-3.394a.63.63 0 0 1-.626-.703l.147-1.25a.63.63 0 1 1 1.25.147l-.147 1.25a.63.63 0 0 1-.624.556zm.399-3.394a.63.63 0 0 1-.626-.703l.147-1.25a.63.63 0 1 1 1.25.147l-.147 1.25a.63.63 0 0 1-.624.556zm1.363 13.852a.895.895 0 0 1-.502-.155l-1.044-.705a.899.899 0 1 1 1.007-1.49l1.043.705a.9.9 0 0 1-.504 1.645zm-2.831-1.914a.895.895 0 0 1-.503-.154l-1.043-.705a.899.899 0 1 1 1.007-1.49l1.043.705a.899.899 0 0 1-.504 1.644zm-2.832-1.913a.895.895 0 0 1-.502-.154l-1.044-.705a.9.9 0 1 1 1.007-1.49l1.043.705a.9.9 0 0 1-.504 1.644zm-2.831-1.913a.894.894 0 0 1-.503-.154l-1.043-.705a.899.899 0 1 1 1.007-1.49l1.043.705a.899.899 0 0 1-.504 1.644zm-2.832-1.913a.895.895 0 0 1-.503-.155l-1.043-.705a.9.9 0 1 1 1.007-1.49l1.043.705a.9.9 0 0 1-.504 1.645zm-28.382-33.8a.896.896 0 0 1-.606-.236l-.703-.641a.899.899 0 1 1 1.213-1.328l.703.641a.899.899 0 0 1-.607 1.564zm-2.297-2.097a.896.896 0 0 1-.606-.235l-.93-.85a.899.899 0 1 1 1.213-1.327l.93.849a.9.9 0 0 1-.607 1.563zm-2.523-2.304a.896.896 0 0 1-.606-.235l-.93-.85A.899.899 0 1 1 97.067 168l.93.85a.9.9 0 0 1-.607 1.563zm-2.524-2.305a.896.896 0 0 1-.606-.235l-.93-.849a.899.899 0 1 1 1.213-1.328l.93.849a.9.9 0 0 1-.607 1.563zm11.3 7.425a.9.9 0 0 1-.875-.695l-.188-.808a.9.9 0 0 1 1.751-.408l.189.807a.9.9 0 0 1-.877 1.104zm-.679-2.91a.9.9 0 0 1-.874-.694l-.287-1.227a.9.9 0 0 1 1.752-.408l.286 1.226a.9.9 0 0 1-.876 1.104zm-.776-3.327a.9.9 0 0 1-.875-.695l-.286-1.226a.9.9 0 0 1 1.751-.41l.287 1.227a.9.9 0 0 1-.877 1.104zm-.777-3.328a.9.9 0 0 1-.874-.695l-.287-1.226a.9.9 0 0 1 1.752-.409l.286 1.226a.9.9 0 0 1-.877 1.104zm31.73 8.486h-.023a.899.899 0 0 1-.876-.922l.018-.723a.899.899 0 1 1 1.798.045l-.018.723a.9.9 0 0 1-.899.877zm.072-2.881h-.023a.9.9 0 0 1-.876-.922l.03-1.258a.9.9 0 1 1 1.798.045l-.03 1.258a.9.9 0 0 1-.899.877zm.085-3.417h-.023a.899.899 0 0 1-.876-.921l.03-1.259a.9.9 0 1 1 1.798.045l-.03 1.259a.9.9 0 0 1-.899.877zm.085-3.416h-.023a.9.9 0 0 1-.876-.922l.032-1.258a.9.9 0 1 1 1.798.045l-.032 1.258a.9.9 0 0 1-.899.877zm.086-3.416h-.023a.9.9 0 0 1-.876-.922l.032-1.259a.9.9 0 1 1 1.798.045l-.031 1.26a.9.9 0 0 1-.899.876zm-6.996 9.72a.898.898 0 0 1-.727-.368l-.742-1.017a.9.9 0 1 1 1.453-1.06l.742 1.017a.9.9 0 0 1-.726 1.429zm-2.014-2.76a.898.898 0 0 1-.727-.369l-.742-1.017a.9.9 0 1 1 1.452-1.06l.742 1.017a.9.9 0 0 1-.725 1.43zm-2.015-2.76a.898.898 0 0 1-.727-.37l-.742-1.016a.9.9 0 1 1 1.453-1.06l.742 1.017a.9.9 0 0 1-.726 1.429zm-2.014-2.76a.898.898 0 0 1-.727-.37l-.742-1.017a.9.9 0 1 1 1.453-1.06l.742 1.017a.9.9 0 0 1-.726 1.43zm-2.014-2.761a.898.898 0 0 1-.727-.37l-.743-1.016a.9.9 0 1 1 1.453-1.06l.742 1.016a.9.9 0 0 1-.725 1.43z"
   ></path>
   <path
      fill="#00b0d8"
      d="M49.81 81.986c-1.126-7.245 3.928-11.199 3.928-11.199s5.966 1.907 7.143 9.478c1.177 7.57-3.929 11.199-3.929 11.199s-6.015-2.233-7.142-9.478zm-6.275 14.282c-7.106-1.804-8.762-8.004-8.762-8.004s4.093-4.74 11.519-2.855c7.426 1.885 8.762 8.004 8.762 8.004s-4.413 4.66-11.52 2.855zm310.34-42.26c2.16 7.597-2.724 12.49-2.724 12.49s-6.629-1.253-8.884-9.191c-2.256-7.939 2.723-12.49 2.723-12.49s6.727 1.594 8.885 9.19zm25.132 18.305c-1.881 3.619-5.45 3.727-5.45 3.727s-2.046-2.82-.08-6.602c1.966-3.782 5.45-3.727 5.45-3.727s1.961 2.983.08 6.602zm-89.658 2.566c-3.786 5.685-9.747 5.22-9.747 5.22s-2.898-5.064 1.059-11.006c3.956-5.941 9.746-5.22 9.746-5.22s2.728 5.32-1.058 11.006zm99.47 10.883c3.9 2.126 3.94 6.014 3.94 6.014s-3.115 2.167-7.19-.055c-4.075-2.223-3.94-6.014-3.94-6.014s3.29-2.072 7.19.055zm-115.56 5.99c3.21-3.88 7.547-3.084 7.547-3.084s1.738 3.936-1.617 7.99c-3.355 4.056-7.547 3.085-7.547 3.085s-1.594-4.11 1.617-7.991zm11.326 10.156c6.358-3.379 11.654.036 11.654.036s.153 6.149-6.491 9.68c-6.643 3.53-11.654-.036-11.654-.036s.133-6.3 6.49-9.68zm33.645-15.233c6.992-1.716 11.289 2.893 11.289 2.893s-1.36 5.998-8.667 7.792c-7.306 1.793-11.289-2.893-11.289-2.893s1.674-6.076 8.667-7.792zm-7.632-20.606c7.799 2.015 9.59 8.834 9.59 8.834s-4.52 5.188-12.669 3.083c-8.149-2.106-9.589-8.833-9.589-8.833s4.87-5.099 12.668-3.084zm-33.66-13.747c7.049-3.898 13.036-.177 13.036-.177s.285 6.875-7.08 10.948-13.036.177-13.036.177.031-7.05 7.08-10.948zm48.78.712c5.604 6.52 3.015 13.584 3.015 13.584s-7.121 1.79-12.977-5.022c-5.855-6.812-3.015-13.584-3.015-13.584s7.374-1.498 12.977 5.022zm49.8 13.248c-1.612 6.964-7.621 8.706-7.621 8.706s-4.705-3.893-3.02-11.17c1.685-7.276 7.62-8.705 7.62-8.705s4.634 4.206 3.021 11.17zm-183.59 17.85c-3.927-2.715-3.53-6.875-3.53-6.875s3.575-1.964 7.68.874c4.103 2.837 3.53 6.875 3.53 6.875s-3.752 1.841-7.68-.874zm-8.715-43.015c-3.95-3.12-3.252-7.47-3.252-7.47s3.893-1.826 8.02 1.435c4.127 3.26 3.252 7.47 3.252 7.47s-4.07 1.686-8.02-1.435zm-8.574 47.426c-6.88-2.189-8.146-8.38-8.146-8.38s4.301-4.422 11.492-2.134c7.19 2.287 8.146 8.38 8.146 8.38s-4.61 4.323-11.491 2.134zm4.8 9.898c-1.499 4.077-5.254 4.673-5.254 4.673s-2.542-2.702-.977-6.963c1.566-4.26 5.253-4.673 5.253-4.673s2.475 2.886.977 6.963zm-67.266 5.219c-1.738 5.488-6.674 6.505-6.674 6.505s-3.53-3.425-1.713-9.16c1.815-5.736 6.673-6.505 6.673-6.505s3.452 3.67 1.714 9.16zm-.164-27.78c-7.645.796-11.519-4.706-11.519-4.706s2.313-6.146 10.302-6.978c7.99-.832 11.518 4.706 11.518 4.706s-2.656 6.182-10.302 6.978zm17.7-44.953c1.755 7.484-3.214 12.02-3.214 12.02s-6.389-1.518-8.222-9.339c-1.834-7.82 3.214-12.02 3.214-12.02s6.467 1.855 8.222 9.34zm31.895 7.99c-2.345 9.192-10.37 11.324-10.37 11.324s-6.126-5.303-3.675-14.909c2.45-9.604 10.37-11.324 10.37-11.324s6.021 5.717 3.676 14.908zm-11.479 54.396c-3.078 7.035-9.767 7.687-9.767 7.687s-4.198-5.04-.982-12.39c3.216-7.35 9.767-7.686 9.767-7.686s4.06 5.355.982 12.39zm13.28-2.273c.703 8.474-5.471 12.63-5.471 12.63s-6.743-2.7-7.478-11.556c-.735-8.855 5.47-12.63 5.47-12.63s6.776 3.08 7.48 11.555zm105.54-38.107c-2.865 5.716-8.456 5.968-8.456 5.968s-3.273-4.373-.28-10.347c2.995-5.973 8.457-5.968 8.457-5.968s3.144 4.63.28 10.346zm-245.73 158.01c-2.764 2.063-5.521.831-5.521.831s-.52-2.9 2.369-5.056c2.89-2.156 5.522-.831 5.522-.831s.395 2.993-2.37 5.056zm-11.147-5.953c-5.145.168-7.47-3.69-7.47-3.69s1.837-3.996 7.212-4.173c5.377-.175 7.471 3.691 7.471 3.691s-2.068 4.004-7.213 4.172zm39.084 6.275c-2.172 3.788-5.994 3.746-5.994 3.746s-2.065-3.106.204-7.065c2.27-3.96 5.995-3.747 5.995-3.747s1.967 3.277-.205 7.066zm92.696-13.894c1.49 5.267-1.9 8.654-1.9 8.654s-4.593-.874-6.15-6.378c-1.556-5.505 1.9-8.656 1.9-8.656s4.661 1.112 6.15 6.38zm-13.583 3.658c5.493 4.541 4.368 10.677 4.368 10.677s-5.567 2.462-11.307-2.283c-5.74-4.746-4.368-10.677-4.368-10.677s5.815-2.258 11.308 2.283zm-4.602 46.739c-5.98 5.557-12.779 3.36-12.779 3.36s-1.961-6.69 4.287-12.498c6.25-5.807 12.78-3.36 12.78-3.36s1.693 6.942-4.287 12.498zm-21.589-.26c-5.603 4.487-11.424 2.122-11.424 2.122s-1.288-5.995 4.566-10.684c5.855-4.69 11.424-2.123 11.424-2.123s1.037 6.198-4.566 10.684zm35.804-2.97c1.108 7.093-3.839 10.968-3.839 10.968s-5.841-1.863-6.999-9.275c-1.157-7.411 3.839-10.967 3.839-10.967s5.893 2.183 7 9.275zm30.981-35.435c6.056 3.854 5.695 10.128 5.695 10.128s-5.258 3.153-11.586-.875c-6.327-4.028-5.695-10.128-5.695-10.128s5.531-2.98 11.586.875zm-12.3 24.653c2.608 7.828-2.26 13.164-2.26 13.164s-6.977-.998-9.703-9.179c-2.725-8.18 2.26-13.164 2.26-13.164s7.096 1.35 9.703 9.179zm-53.175-14.428c7.784 2.116 9.489 8.968 9.489 8.968s-4.59 5.137-12.724 2.925c-8.134-2.212-9.49-8.968-9.49-8.968s4.942-5.043 12.725-2.925zm-10.046-55.38c2.67 2.754 1.705 5.969 1.705 5.969s-3.123.987-5.912-1.89c-2.79-2.877-1.705-5.968-1.705-5.968s3.243-.864 5.912 1.89zm11.7-2.826c1.664 4.74-1.248 8.035-1.248 8.035s-4.257-.54-5.996-5.492c-1.738-4.954 1.248-8.036 1.248-8.036s4.332.753 5.996 5.493zm16.92-26.302c-.145 3.981-3.249 5.571-3.249 5.571s-2.987-1.63-2.836-5.791c.15-4.16 3.247-5.572 3.247-5.572s2.981 1.81 2.837 5.792zm-45.178.199c4.857 3.482 4.27 8.681 4.27 8.681s-4.516 2.38-9.592-1.259c-5.075-3.64-4.27-8.68-4.27-8.68s4.735-2.225 9.592 1.258zm-10.758 17.993c4.765 4.698 3.21 10.346 3.21 10.346s-5.41 1.845-10.39-3.064c-4.978-4.91-3.209-10.345-3.209-10.345s5.625-1.635 10.39 3.064zm-34.867 23.835c2.76-6.096 8.596-6.59 8.596-6.59s3.603 4.437.72 10.807c-2.885 6.37-8.596 6.591-8.596 6.591s-3.48-4.712-.72-10.808zM9.193 191.71C2.516 191.27 0 185.982 0 185.982s2.886-4.934 9.863-4.476c6.978.459 9.194 5.728 9.194 5.728s-3.187 4.915-9.864 4.476zm-4.959-25.771c-5.326-5.775-3.188-12.311-3.188-12.311s6.448-1.863 12.014 4.171c5.566 6.036 3.188 12.312 3.188 12.312s-6.687 1.604-12.014-4.172zm26.593-10.595c5.459-2.603 9.779.457 9.779.457s-.097 5.165-5.801 7.885c-5.705 2.72-9.779-.457-9.779-.457s.342-5.283 5.801-7.885zm61.023 54.259c-2.056 7.176-8.417 8.67-8.417 8.67s-4.697-4.314-2.55-11.812c2.15-7.498 8.418-8.669 8.418-8.669s4.606 4.635 2.549 11.811zm8.049-56.33c-5.544 5-11.731 2.898-11.731 2.898s-1.701-6.146 4.092-11.37c5.794-5.222 11.73-2.896 11.73-2.896s1.453 6.371-4.091 11.37zm67.259 13.426c3.721 3.103 2.939 7.271 2.939 7.271s-3.792 1.657-7.68-1.585c-3.889-3.243-2.94-7.271-2.94-7.271s3.96-1.518 7.68 1.585zm-26.371-8.817c.234 6.305-4.484 9.175-4.484 9.175s-4.906-2.23-5.15-8.818c-.244-6.588 4.484-9.175 4.484-9.175s4.917 2.514 5.15 8.818zm-17.097-3.363c3.693 5.115 1.362 10.121 1.362 10.121s-5.319.868-9.178-4.477c-3.859-5.345-1.362-10.12-1.362-10.12s5.485-.639 9.178 4.476zm55.31 4.05c2.699 7.368-1.78 12.577-1.78 12.577s-6.66-.753-9.48-8.453c-2.82-7.7 1.779-12.577 1.779-12.577s6.783 1.084 9.48 8.453zm108.96-33.892c3.975 2.458 3.794 6.545 3.794 6.545s-3.397 2.098-7.55-.47c-4.154-2.57-3.794-6.545-3.794-6.545s3.575-1.988 7.55.47zm-18.067 14.733c3.185-5.781 8.962-5.816 8.962-5.816s3.2 4.642-.128 10.684c-3.328 6.041-8.962 5.816-8.962 5.816s-3.057-4.902.128-10.684zm-42.471-17.287c-3.557 3.018-7.382 1.589-7.382 1.589s-.947-3.871 2.77-7.025c3.717-3.153 7.382-1.588 7.382-1.588s.787 4.006-2.77 7.024zm-1.733-17.998c-6.582-3.121-7.007-9.483-7.007-9.483s4.9-3.836 11.777-.574c6.877 3.262 7.007 9.483 7.007 9.483s-5.195 3.696-11.777.574zm.26-65.779c4.652-5.605 10.922-4.444 10.922-4.444s2.505 5.696-2.356 11.553c-4.86 5.857-10.92 4.444-10.92 4.444s-2.298-5.947 2.355-11.553zm13.56-5.526c-.512-7.266 4.822-10.76 4.822-10.76s5.747 2.385 6.282 9.978c.535 7.593-4.821 10.76-4.821 10.76s-5.771-2.711-6.282-9.978zm89.129 85.627c-1.301-4.926 1.908-8.024 1.908-8.024s4.26.889 5.62 6.037c1.359 5.148-1.909 8.024-1.909 8.024s-4.32-1.11-5.62-6.037zm-12.247 58.966c-5.04-.747-6.622-4.917-6.622-4.917s2.496-3.566 7.763-2.785c5.267.781 6.622 4.917 6.622 4.917s-2.723 3.533-7.763 2.785zm-205.53 73.72c-.343 3.597-3.238 4.87-3.238 4.87s-2.618-1.636-2.26-5.395c.358-3.758 3.238-4.87 3.238-4.87s2.602 1.797 2.26 5.394zm110.02-57.537c2.056 4.662-.629 8.224-.629 8.224s-4.347-.21-6.496-5.082c-2.148-4.871.628-8.223.628-8.223s4.44.419 6.497 5.081zm95.036 10.995c-4.395 2.58-8.242.324-8.242.324s-.292-4.343 4.3-7.038c4.591-2.696 8.24-.324 8.24-.324s.096 4.459-4.298 7.038zm19.932-45.056c5.17 5.846 2.91 12.292 2.91 12.292s-6.44 1.717-11.843-4.392c-5.403-6.108-2.911-12.292-2.911-12.292s6.674-1.454 11.844 4.392zm18.487-8.347c3.417 7.017-.486 12.623-.486 12.623s-6.666-.07-10.236-7.402c-3.57-7.332.486-12.623.486-12.623s6.82.385 10.236 7.402zm-9.337-39.4c4.138-6.618 10.96-6.28 10.96-6.28s3.475 5.69-.85 12.604c-4.325 6.913-10.961 6.279-10.961 6.279s-3.288-5.987.85-12.603zm21.327 19.476c6.895-3.656 12.632.051 12.632.051s.159 6.665-7.046 10.485c-7.205 3.82-12.632-.05-12.632-.05s.15-6.83 7.045-10.486zm21.726-60.258c5.558-1.285 8.914 2.413 8.914 2.413s-1.142 4.738-6.95 6.081-8.914-2.413-8.914-2.413 1.391-4.796 6.95-6.08zm-60.256-16.403c-.034-6.245 4.723-8.938 4.723-8.938s4.785 2.36 4.82 8.886c.036 6.526-4.723 8.938-4.723 8.938s-4.786-2.64-4.82-8.886zm-101.63-30.037c-4.113 4.017-8.938 2.59-8.938 2.59s-1.497-4.677 2.8-8.875c4.298-4.197 8.938-2.589 8.938-2.589s1.313 4.858-2.8 8.874zm-58.416 37.78c-6.254 2.152-10.57-1.708-10.57-1.708s.746-5.6 7.282-7.849c6.535-2.248 10.568 1.708 10.568 1.708s-1.027 5.698-7.28 7.85zm38.499-51.85c4.816 5.708 2.51 11.825 2.51 11.825s-6.202 1.499-11.234-4.467c-5.032-5.966-2.51-11.826-2.51-11.826s6.418-1.242 11.234 4.467zm50.705 41.376c-5.034-1.321-6.174-5.731-6.174-5.731s2.933-3.342 8.193-1.961c5.26 1.38 6.173 5.731 6.173 5.731s-3.158 3.282-8.192 1.961zm-.223-7.558c-4.137 1.416-6.985-1.14-6.985-1.14s.499-3.702 4.822-5.182c4.323-1.48 6.985 1.14 6.985 1.14s-.684 3.767-4.822 5.182zM198.54 31.386c1.524 5.475-2.009 8.977-2.009 8.977s-4.765-.928-6.357-6.649c-1.592-5.72 2.009-8.976 2.009-8.976s4.833 1.173 6.357 6.648zm26.092-17.916c-2.382 8.163-9.636 9.829-9.636 9.829s-5.326-4.939-2.837-13.47c2.489-8.529 9.635-9.827 9.635-9.827s5.22 5.305 2.838 13.468zm-24.58 43.248c6.144 3.374 6.19 9.51 6.19 9.51s-4.925 3.405-11.346-.12c-6.42-3.526-6.19-9.51-6.19-9.51s5.202-3.254 11.347.12zM91.371 85.583c2.038-7.923 8.963-9.75 8.963-9.75s5.275 4.585 3.146 12.865c-2.13 8.28-8.963 9.75-8.963 9.75s-5.184-4.941-3.146-12.865zm-22.926-4.342c-.147-7.33 5.391-10.573 5.391-10.573s5.657 2.688 5.81 10.348c.154 7.66-5.39 10.572-5.39 10.572s-5.663-3.018-5.81-10.348zm35.827-20.61c-9.446.351-13.749-6.716-13.749-6.716s3.34-7.352 13.212-7.72c9.872-.367 13.75 6.716 13.75 6.716s-3.766 7.368-13.213 7.72z"
   ></path>
   <path
      fill="#2b388f"
      d="M216.96 18.156c-2.334 4.337-4.614 8.728-6.248 13.527-1.336 3.881-2.104 8.212-1.773 12.58-3.781.22-7.58.143-11.303-.523-4.2-.758-8.397-2.348-11.611-5.44 2.688 3.56 6.804 5.956 11.084 7.43 4.01 1.385 8.22 2.092 12.426 2.465 1.094 4.947 3.47 9.57 5.99 13.578 2.391 4.012 4.706 8.39 5.28 11.936.267 1.797-.04 2.742-.599 3.498-.565.819-1.861 2.023-3.609 3.334-3.513 2.627-8.06 5.71-12.08 9.507-5.021 4.41-8.988 10.193-11.607 16.631a26.035 26.035 0 0 0-1.541-.576c-8.278-2.744-15.469-1.882-21.697-1.127-12.369 1.74-23.312 4.675-31.309.143-3.752-1.982-5.761-5.624-5.57-10.797.192-4.997 2.147-10.66 4.894-15.336 2.881-4.838 6.872-8.983 11.746-12.207 4.853-3.255 10.34-5.748 15.727-8.334-5.714 1.763-11.485 3.387-17.045 6.008a42.295 42.295 0 0 0-11.035 7.43c-.778-.855-1.4-1.727-1.767-2.577-.466-1.08-.563-2.215-.215-3.734.637-2.962 3.018-6.946 2.554-11.48-.116-2.142-1.237-4.515-2.681-5.952-1.446-1.537-3.095-2.567-4.633-3.597-1.54-1.026-3.032-2.048-4.186-3.416-1.16-1.353-1.853-3.117-2-4.985-.165 1.854.225 3.832 1.24 5.514 1 1.69 2.428 3.058 3.794 4.338 2.817 2.485 5.212 5.166 4.761 8.193-.169 3.121-2.344 5.637-4.123 9.631-.875 1.984-1.349 4.726-.754 7.242.564 2.505 1.773 4.557 3.045 6.327l.166-.141c-3.51 4.713-6.166 9.885-7.459 16.115-.638 3.396-.686 7.229.565 11.008a17.3 17.3 0 0 0 .638 1.668c-2.057 3.134-4.035 5.964-6.246 8.225-1.22 1.254-2.493 2.284-3.644 2.896-1.172.612-2.069.825-3.084.71l-.195-.028-.1-.012c.074.023-.694-.2-.375-.107l-.012-.004-.025-.004-.053-.01c-.136-.032-.286-.034-.42-.078a5.24 5.24 0 0 1-.832-.264c-.56-.229-1.148-.581-1.762-1.068-1.233-.972-2.507-2.46-3.847-4.122-2.63-3.226-5.908-7.68-11.262-9.59-.318-.125-.648-.216-.975-.312l-.246-.07-.121-.035-.063-.018-.029-.01c.07.016-.723-.175-.402-.096l-.494-.05c-.659-.071-1.318-.09-1.967-.086-1.3.01-2.559.169-3.75.4-2.39.464-4.51 1.209-6.498 1.787-1.986.582-3.847.995-5.627.885-1.743-.05-3.519-.824-5.31-1.805-1.711-.97-3.187-2.208-3.776-3.847-.616-1.643-.266-3.72.312-5.748 1.177-3.99 2.96-8.607 1.375-12.828.993 4.394-1.206 8.318-2.93 12.283-.83 2.002-1.69 4.342-1.138 6.95.578 2.61 2.483 4.548 4.336 5.934 1.83 1.34 3.978 2.678 6.574 3.141 2.53.488 5.026.21 7.25-.14 2.236-.36 4.297-.788 6.203-.901.953-.06 1.862-.05 2.725.059.418.053.83.12 1.228.216l.008.004.036.016.068.031.139.063c.184.083.371.157.545.26 2.85 1.429 4.794 4.522 7.072 8.269 1.165 1.86 2.427 3.917 4.338 5.935.955 1.001 2.096 1.98 3.435 2.793.667.407 1.382.766 2.123 1.069.367.164.75.275 1.13.408l.142.047.07.023.037.012c.335.098-.417-.119-.326-.092l.29.1.587.193c3.183 1.027 6.81.697 9.625-.35 2.866-1.03 5.168-2.552 7.203-4.136 2.876-2.27 5.275-4.789 7.443-7.25 5.46 3.366 11.768 4.706 17.436 5.096 6.628.494 12.807.115 18.443.216 5.595.045 10.72.72 13.625 2.455 2.75 1.6 4.114 3.855 5.356 7.747a49.41 49.41 0 0 0 2.09 9.472 49.315 49.315 0 0 0 3.861 8.856l.295.535c-.176-.246.323.487.299.453l.074.117.148.235.592.94c.39.63.816 1.235 1.227 1.855a75.103 75.103 0 0 0 5.762 7.397 33.863 33.863 0 0 1-2.612 5.13c-2.264 3.682-5.231 7.16-8.566 10.029-3.33 2.87-7.07 5.134-10.717 6.334-1.82.598-3.606.948-5.29.986-.836-.002-1.665-.024-2.464-.156l-.6-.1-.152-.021c.222.078-.072-.015-.082-.014l-.465-.125c-.621-.17-1.237-.323-1.864-.51-10.009-2.81-20.45-7.222-32.016-10.182-5.78-1.462-11.892-2.53-18.19-2.613-6.287-.116-12.722.897-18.65 3.002-1.45.485-3.026 1.167-4.266 1.7a56.666 56.666 0 0 0-4.184 2.023 75.306 75.306 0 0 0-3.385 1.926c-3.57-2.469-7.25-4.453-8.894-6.059-.87-.852-1.317-1.57-1.299-3.357.068-1.742.59-3.707 1.403-5.91.652-2.008 1.621-4.047 2.627-6.202.97-2.155 2.124-4.46 2.41-7.254.13-1.385-.112-2.876-.715-4.117-.618-1.24-1.505-2.215-2.45-3.015-1.903-1.6-4.06-2.607-6.208-3.532 1.892 1.362 3.756 2.832 5.094 4.6 1.396 1.765 1.883 3.752 1.24 5.525-1.325 3.664-5.013 6.945-7.584 11.363-1.248 1.962-2.61 4.316-3.41 7.164-.394 1.442-.629 3.112-.444 4.909.16 1.8.85 3.606 1.703 5.074 1.77 2.92 3.78 4.713 5.45 6.427.367.365.725.722 1.076 1.075-2.689 1.917-5.31 3.83-7.94 5.664-8.857 6.17-18.159 11.883-28.264 11.955-2.497.022-4.998-.335-7.449-1.016a27.377 27.377 0 0 1-3.623-1.281c-1.12-.428-2.155-1.078-3.176-1.762-4.014-2.888-7.007-7.488-8.572-12.516-1.59-5.021-1.888-10.62-.184-15.71 1.638-5.115 6.016-9.275 11.477-10.608-2.74.459-5.42 1.547-7.685 3.285-2.289 1.72-4.01 4.138-5.225 6.75-2.344 5.312-2.6 11.384-1.369 17.068 1.228 5.686 4.004 11.25 8.682 15.36 1.194.985 2.454 1.937 3.873 2.652a32.485 32.485 0 0 0 4.084 1.883c2.818 1.077 5.822 1.802 8.88 2.062 6.141.55 12.285-.697 17.836-2.728 5.588-2.03 10.727-4.763 15.656-7.56 9.85-5.573 18.981-11.79 28.455-14.032 9.398-2.442 19.092-.897 28.787 2.592 7.562 2.672 15.1 6.399 23.262 9.943-.41 3.982-2.572 7.744-6.29 11.156-4.63 4.32-10.685 7.845-16.698 11.441-6.025 3.614-12.285 7.267-17.668 12.16-5.403 4.77-9.538 11.494-9.76 18.617 1.243-7.041 5.956-12.609 11.563-16.369 5.628-3.862 12.022-6.52 18.469-9.267 6.451-2.776 13.137-5.412 19.52-9.854 3.154-2.238 6.27-5.051 8.595-8.806a23.532 23.532 0 0 0 2.371-5.012l.202.06.353.106 1.42.408c1.903.52 3.844.824 5.78 1.008 3.872.328 7.662-.037 11.22-.814 7.135-1.59 13.355-4.747 18.852-8.596a65.717 65.717 0 0 0 14.43-13.936 70.791 70.791 0 0 0 1.762-2.465c1.344.965 2.683 1.897 4.004 2.797 8.68 5.914 16.823 10.909 22.869 16.17 6.102 5.271 9.767 10.43 11.852 16.25.532 1.463.978 2.98 1.346 4.563l.138.591c.129.348-.26-.672.293.8l.02.081.043.164.084.33c.116.439.225.873.319 1.307.203.867.38 1.726.521 2.572.59 3.387.746 6.581.484 9.408-.578 5.722-2.557 9.597-5.708 13.04-1.296 1.344-4.293 4.316-7.413 7.124-3.18 2.901-6.943 6.151-11.162 10.295-13.197 12.964-22.446 29.876-25.115 48.19-4.068 27.908 4.585 56.818 10.396 84.097h81.832c-.472-.893-1.011-1.751-1.373-2.705-2.554-6.742-4.661-13.583-7.6-20.182-6.431-14.444-14.217-28.362-18.815-43.559-2.192-7.245-3.087-15.109-.219-22.293 2.643-6.62 7.88-12.094 12.182-17.666 3.401-4.512 6.904-8.962 10.858-15.928 3.631-6.567 6.334-13.88 7.701-21.309 1.395-7.428 1.512-14.883.668-21.848-.848-6.977-2.614-13.48-4.896-19.477a84.272 84.272 0 0 0-1.813-4.41 68.24 68.24 0 0 0-.973-2.139l-.248-.529-.125-.266-.062-.13c.527 1.399.11.306.211.582l-.508-1.131a80.035 80.035 0 0 0-4.693-8.856 65.864 65.864 0 0 0-4.265-6.26 144.094 144.094 0 0 0 4.61-4.181c2.815-2.707 5.682-5.85 8.097-9.555 2.425-3.684 4.294-7.905 5.359-12.15.25-1.062.49-2.121.658-3.178.07-.373.126-.744.176-1.115.5-.03 1.007-.073 1.527-.13 3.047-.272 7.097-1.625 9.633-4.344 2.513-2.63 3.528-5.283 4.475-7.602.915-2.377 1.637-4.523 2.474-6.805.4-1.105.789-2.25 1.12-2.978.282-.7.809-1.35 1.638-2.178.794-.797 1.673-1.616 2.54-2.437.709-.703 1.58-1.348 2.519-1.932 1.883-1.178 4.18-2.108 6.252-3.545 2.1-1.408 3.69-3.462 4.572-5.666-1.385 1.96-3.25 3.426-5.361 4.22-2.102.838-4.413 1.191-6.834 1.997-1.211.41-2.428.916-3.618 1.633-1.029.601-2.057 1.188-3.129 1.853-1.025.631-2.342 1.536-3.357 2.834-.985 1.247-1.576 2.273-2.246 3.28-1.287 1.955-2.615 4.081-3.871 5.917-1.252 1.85-2.595 3.434-3.662 3.957-1.016.503-1.834.468-3.492.276-.436-.06-.903-.15-1.387-.258-.32-2.537-.707-4.896-1.027-7.15-.957-6.376-1.275-11.947.699-15.512 2.42-4.158 7.78-8.498 13-12.387 5.327-3.985 11.025-7.875 16.332-12.477a82.552 82.552 0 0 0 2.314-2.102c2.02.488 4.251.801 6.647.432 2.56-.367 4.939-1.81 6.465-3.35 3.067-3.117 4.612-6.062 7.455-7.361 2.652-1.527 6.022-.28 9.365 1.433 1.69.803 3.488 1.634 5.426 1.946 1.937.33 3.92-.031 5.586-.864-1.791.546-3.686.547-5.37-.039-1.695-.573-3.192-1.586-4.71-2.644-1.522-1.055-3.084-2.213-5.043-2.996-1.866-.819-4.484-.994-6.52-.319-4.39 1.228-7.227 4.903-9.75 6.578-1.287.88-2.379 1.205-3.555 1.166a6.575 6.575 0 0 1-.505-.039c2.03-2.723 3.676-5.742 4.578-9.125.928-3.539.832-7.256-.078-10.623-.9-3.384-2.504-6.445-4.35-9.271 2.885 6.058 4.126 13.147 1.502 18.91-2.525 5.764-7.714 9.86-13.156 13.324-5.513 3.476-11.515 6.363-17.582 9.592-3.038 1.62-6.106 3.319-9.166 5.338-1.422.953-2.834 1.95-4.227 3.085-1.296-.65-2.41-1.363-3.15-2.087-.615-.614-1.002-1.133-1.17-1.979-.166-.842 0-2.02.43-3.262 1.82-5.092 6.078-10.396 7.67-16.303-3.293 5.258-8.242 8.35-12.38 13.762-1.001 1.403-1.978 3.094-2.388 5.274-.438 2.17 0 4.704.967 6.658 1.022 2.033 2.276 3.635 3.617 5.008-1.886 3.15-2.936 6.63-3.504 9.814-.722 4.064-.812 7.858-.853 11.396-.056 7.113.173 13.257-1.86 16.803-1.936 4.364-5.014 7.47-9.734 10.766-2.187 1.538-4.68 3.068-7.356 4.72a81.593 81.593 0 0 0-6.763-4.35c-7.357-4.294-14.418-7.384-20.934-10.218a18.97 18.97 0 0 1-.112-3.584c.174-3.881 1.148-8.117 2.707-11.854a27.36 27.36 0 0 1 1.27-2.656l.344-.602.175-.28.088-.141.043-.07.023-.036.01-.017c-.14.183.204-.27.172-.229.193-.326.412-.663.66-1.006 1.016-1.375 2.546-2.795 4.276-4.178 3.476-2.843 7.77-5.31 11.867-9.337 1.967-2.12 4.154-4.63 4.51-8.782.133-3.418-1.095-6.315-2.31-8.607-2.489-4.563-5.361-8.129-4.688-11.859.632-3.93 4.461-7.057 8.439-9.715 1.983-1.391 4.043-2.826 5.768-4.64 1.739-1.793 3.001-4.048 3.484-6.428-1.644 4.766-6.058 7.212-10.31 9.303-2.155 1.098-4.395 2.208-6.477 3.828-2.077 1.63-3.93 3.77-4.886 6.615-.966 2.873-.495 6.045.355 8.555.84 2.56 1.938 4.787 2.686 6.877.766 2.084 1.09 3.96.765 5.406-.177.735-1.322 2.249-2.86 3.342-3.193 2.39-7.647 4.299-12.132 6.935l-.219.131c-1.472-1.054-2.618-2.236-3.312-3.639-1.064-2.011-1.05-5.043-.393-8.361.586-3.318 1.757-6.9 1.791-10.824.01-1.944-.417-3.98-1.406-5.633-.982-1.661-2.397-2.886-3.89-3.828 1.194 1.31 2.15 2.814 2.568 4.399.422 1.586.3 3.182-.133 4.718-.882 3.095-2.757 5.978-4.387 9.319-1.601 3.27-3.254 7.437-2.53 12.338.456 3.078 1.798 5.817 3.47 8.158l-.09.105-.19.22-.375.439-.701.882a38.696 38.696 0 0 0-2.422 3.586c-2.704 4.556-4.65 9.342-5.82 14.625-5.437-2.8-10.258-5.836-14.396-9.543a55.642 55.642 0 0 1-2.131-2.025c-.337-.354-.693-.696-1.02-1.06l-.498-.542-.127-.136-.062-.069c-.072-.094.387.575.17.264l-.199-.242a25.392 25.392 0 0 1-2.895-4.202c-1.688-3.022-2.804-6.49-3.261-10.12-.87-7.28.844-15.146 5.894-21.442 2.579-3.497 5.73-6.564 9.477-10.535 1.3-1.45 2.805-3.099 4.082-5.279.496-.106.994-.224 1.494-.357 2.936-.778 6.03-2.19 8.523-4.461 2.507-2.266 4.146-5.24 4.952-8.078.205-.7.37-1.394.502-2.084 5.298-.31 10.677-.713 15.94-1.938 6.175-1.386 12.083-4.252 16.54-8.595-4.928 3.824-10.877 5.896-16.898 6.57-4.998.593-10.05.436-15.146.176.01-.133.018-.266.022-.399.04-.545.06-1.871-.163-2.674-.964-3.615-2.785-5.133-3.316-6.869a5.324 5.324 0 0 1-.324-2.615 7.56 7.56 0 0 1 .123-.717c-.065.116.152-.371.213-.533.21-.468.448-.934.75-1.365 2.31-3.645 7.55-5.376 10.998-8.842-4.06 2.716-9.18 2.92-13.342 6.834-.506.471-.963 1.015-1.381 1.578-.234.368-.333.4-.676 1.053-.15.33-.297.665-.42 1.02-.513 1.397-.686 3.054-.46 4.59.463 3.051 1.926 5.502 1.724 6.74-.03.398-.076.298-.233.949-.133.527-.284 1.04-.447 1.54a16.29 16.29 0 0 1-1.193 2.766c-.925 1.687-2.119 2.867-3.457 3.586-.7.382-1.488.656-2.344.842a15.319 15.319 0 0 0-.713-2.482c-2.279-5.902-5.668-9.752-8.951-13.688-3.204-3.545-5.856-7.148-7.455-11.346-3.366-8.41-.417-18.532 2.656-27.725z"
   ></path>
</svg>
