<svg xmlns="http://www.w3.org/2000/svg" viewBox="0 0 640 100">
  <defs>
    <linearGradient id="b" x1="12.481" x2="12.481" y1="2" y2="22.741" gradientTransform="translate(1197 -136.93) scale(1.4286)" gradientUnits="userSpaceOnUse">
      <stop offset="0" stop-color="#327EBD"/>
      <stop offset="1" stop-color="#1565A7"/>
    </linearGradient>
    <linearGradient id="c" x1="19.519" x2="19.519" y1="9.259" y2="30" gradientTransform="translate(1197 -136.93) scale(1.4286)" gradientUnits="userSpaceOnUse">
      <stop offset="0" stop-color="#FFDA4B"/>
      <stop offset="1" stop-color="#F9C600"/>
    </linearGradient>
    <clipPath id="a">
      <path fill="#fff" d="M0 8v84a8 8 45 0 0 8 8h632V0H8a8 8 135 0 0-8 8z" style="paint-order:markers fill stroke" transform="matrix(-1 0 0 1 1279.9 -164.08)"/>
    </clipPath>
  </defs>
  <g clip-path="url(#a)" transform="translate(-639.95 164.08)">
    <path fill="#fff" d="M0 0v100h640V0z" style="paint-order:markers fill stroke" transform="translate(639.95 -164.08)"/>
    <path fill="url(#b)" fill-rule="evenodd" d="M1215.6-134.08c-3.139 0-5.683 2.464-5.683 5.503v3.81h9.836v1.057h-14.208c-3.139 0-5.683 2.464-5.683 5.503v8.254c0 3.039 2.544 5.502 5.683 5.502h3.279v-4.656c0-3.039 2.544-5.502 5.683-5.502h10.492c2.656 0 4.808-2.085 4.808-4.656v-9.312c0-3.04-2.544-5.503-5.683-5.503zm-1.312 6.772c1.087 0 1.968-.852 1.968-1.904s-.881-1.905-1.968-1.905-1.967.853-1.967 1.905.881 1.904 1.967 1.904z" clip-rule="evenodd"/>
    <path fill="url(#c)" fill-rule="evenodd" d="M1224.2-94.076c3.139 0 5.683-2.464 5.683-5.503v-3.81h-9.836v-1.057h14.208c3.139 0 5.683-2.464 5.683-5.503v-8.254c0-3.039-2.544-5.503-5.683-5.503h-3.279v4.656c0 3.04-2.544 5.503-5.683 5.503h-10.492c-2.656 0-4.808 2.085-4.808 4.656v9.312c0 3.04 2.544 5.503 5.683 5.503zm1.312-6.772c-1.087 0-1.968.852-1.968 1.904s.881 1.905 1.968 1.905c1.086 0 1.967-.853 1.967-1.905s-.881-1.904-1.967-1.904z" clip-rule="evenodd"/>
    <g stroke-width="5.732">
      <path fill="#002b3b" d="M689.337-121.999c-.727-3.525-.883-6.229-.413-8.192.28-1.167.79-2.12 1.567-2.807.82-.725 1.858-1.081 3.023-1.081 1.922 0 3.943.876 6.102 2.541.88.68 1.795 1.498 2.745 2.457.075-.098.16-.19.256-.274 2.684-2.392 4.944-3.878 6.877-4.451 1.149-.34 2.228-.373 3.21-.043 1.038.35 1.864 1.07 2.447 2.081.962 1.668 1.216 3.86.857 6.566a27.843 27.843 0 0 1-.75 3.607c.134.016.268.045.4.09 3.406 1.128 5.817 2.341 7.277 3.728.869.826 1.436 1.744 1.641 2.761.216 1.074.005 2.15-.577 3.16-.96 1.666-2.726 2.98-5.243 4.02-1.01.417-2.153.796-3.43 1.136.058.132.104.271.134.418.727 3.525.883 6.229.413 8.192-.28 1.167-.79 2.12-1.567 2.807-.82.725-1.858 1.081-3.023 1.081-1.922 0-3.943-.876-6.102-2.541a27.903 27.903 0 0 1-2.775-2.487c-.099.154-.22.298-.364.426-2.684 2.392-4.944 3.878-6.876 4.45-1.15.341-2.229.374-3.211.043-1.038-.349-1.864-1.07-2.447-2.081-.962-1.668-1.216-3.86-.857-6.566.151-1.143.414-2.391.788-3.748a2.046 2.046 0 0 1-.438-.094c-3.406-1.128-5.817-2.342-7.277-3.729-.869-.825-1.436-1.744-1.64-2.76-.217-1.074-.006-2.15.576-3.16.96-1.666 2.727-2.98 5.243-4.02 1.04-.43 2.221-.819 3.544-1.167a2.06 2.06 0 0 1-.11-.363z"/>
      <path fill="#ff4154" d="M713.084-105.936a.643.643 0 0 1 .74.49l.003.02.036.187c1.17 6.154.346 9.231-2.473 9.231-2.76 0-6.27-2.625-10.536-7.876a.643.643 0 0 1 .485-1.048h.02l.224.001c1.795.01 3.54-.052 5.234-.187 2-.16 4.09-.432 6.267-.818zm-19.364-4.652.011.018.113.197a62.439 62.439 0 0 0 2.823 4.47 66.79 66.79 0 0 0 3.888 5.045.643.643 0 0 1-.054.886l-.016.015-.145.125c-4.763 4.081-7.86 4.896-9.288 2.444-1.399-2.4-.892-6.764 1.52-13.092a.643.643 0 0 1 1.149-.108zm21.782-9.08.02.006.18.062c5.879 2.045 8.113 4.293 6.7 6.743-1.38 2.396-5.395 4.14-12.043 5.234a.643.643 0 0 1-.659-.96 62.722 62.722 0 0 0 2.573-4.835 66.787 66.787 0 0 0 2.437-5.856.643.643 0 0 1 .773-.4zm-20.77-1.03c.306.18.408.573.229.88a62.722 62.722 0 0 0-2.573 4.834 66.787 66.787 0 0 0-2.437 5.857.643.643 0 0 1-.792.394l-.02-.006-.18-.062c-5.88-2.045-8.113-4.293-6.701-6.743 1.381-2.397 5.396-4.141 12.044-5.234.148-.025.3.004.43.08zm18.878-10.075c1.398 2.4.891 6.764-1.522 13.092a.643.643 0 0 1-1.147.108l-.011-.018-.113-.197a62.439 62.439 0 0 0-2.822-4.47 66.79 66.79 0 0 0-3.889-5.044.643.643 0 0 1 .054-.887l.016-.015.145-.124c4.764-4.082 7.86-4.897 9.288-2.445zm-20.097-1.46c2.759 0 6.27 2.625 10.535 7.877a.643.643 0 0 1-.484 1.047h-.02l-.225-.001a61.76 61.76 0 0 0-5.234.187c-2 .16-4.09.432-6.267.818a.643.643 0 0 1-.738-.49l-.005-.02-.036-.187c-1.17-6.154-.346-9.231 2.474-9.231z"/>
      <path fill="#ffd94c" d="M699.415-121.228h5.508c.806 0 1.55.43 1.95 1.13l2.767 4.818a2.249 2.249 0 0 1 0 2.24l-2.766 4.819a2.25 2.25 0 0 1-1.951 1.13h-5.508a2.25 2.25 0 0 1-1.951-1.13l-2.766-4.82a2.249 2.249 0 0 1 0-2.239l2.766-4.819a2.25 2.25 0 0 1 1.95-1.13zm4.668 1.454c.806 0 1.55.431 1.952 1.13l1.928 3.366a2.249 2.249 0 0 1 0 2.236l-1.928 3.365a2.25 2.25 0 0 1-1.952 1.13h-3.829c-.806 0-1.55-.43-1.951-1.13l-1.929-3.365a2.249 2.249 0 0 1 0-2.236l1.929-3.365c.4-.7 1.145-1.13 1.951-1.13zm-.905 1.591h-2.02c-.804 0-1.548.43-1.95 1.129l-1.018 1.773a2.249 2.249 0 0 0 0 2.241l1.019 1.774a2.249 2.249 0 0 0 1.95 1.129h2.02c.805 0 1.548-.43 1.95-1.129l1.019-1.774a2.249 2.249 0 0 0 0-2.24l-1.02-1.774a2.249 2.249 0 0 0-1.95-1.129zm-.87 1.523c.804 0 1.547.43 1.948 1.127l.145.251c.4.695.4 1.55 0 2.244l-.145.25a2.249 2.249 0 0 1-1.949 1.128h-.277c-.804 0-1.548-.43-1.949-1.127l-.144-.251c-.4-.695-.4-1.55 0-2.244l.144-.251a2.249 2.249 0 0 1 1.95-1.127zm-.139 1.5a1.001 1.001 0 1 0-.001 2.002 1.001 1.001 0 0 0 .001-2.002zm-8.113 1h1.8"/>
    </g>
    <path fill="#ffca28" d="M826.07-134.08h-31.429a4.287 4.287 0 0 0-4.286 4.286v31.429a4.287 4.287 0 0 0 4.286 4.285h31.429a4.287 4.287 0 0 0 4.286-4.285v-31.43a4.287 4.287 0 0 0-4.286-4.285zm-13.946 31.196c0 3.893-2.286 5.67-5.616 5.67-3.009 0-4.75-1.554-5.643-3.438l3.063-1.848c.589 1.044 1.125 1.928 2.42 1.928 1.231 0 2.017-.482 2.017-2.366v-12.777h3.759zm8.893 5.67c-3.491 0-5.75-1.661-6.848-3.84l3.062-1.768c.804 1.313 1.857 2.286 3.706 2.286 1.553 0 2.553-.777 2.553-1.857 0-1.286-1.018-1.741-2.74-2.5l-.938-.402c-2.715-1.152-4.51-2.607-4.51-5.67 0-2.82 2.153-4.964 5.5-4.964 2.394 0 4.108.83 5.34 3.01l-2.929 1.874c-.642-1.152-1.339-1.607-2.42-1.607-1.097 0-1.794.697-1.794 1.607 0 1.125.697 1.58 2.313 2.286l.937.402c3.197 1.366 4.991 2.768 4.991 5.91 0 3.375-2.66 5.232-6.223 5.232z"/>
    <g stroke-width="17.501">
      <path fill="#659ad2" d="M1038.887-122.314a3.41 3.41 0 0 0-.455-1.777 3.501 3.501 0 0 0-1.337-1.255q-7.42-4.097-14.846-8.19a3.774 3.774 0 0 0-3.947.034c-1.969 1.113-11.821 6.522-14.758 8.151a3.267 3.267 0 0 0-1.798 3.036v16.483a3.428 3.428 0 0 0 .428 1.743 3.477 3.477 0 0 0 1.363 1.286c2.937 1.63 12.79 7.038 14.76 8.15a3.774 3.774 0 0 0 3.946.038q7.414-4.101 14.836-8.19a3.491 3.491 0 0 0 1.365-1.285 3.428 3.428 0 0 0 .428-1.743v-16.48"/>
      <path fill="#00599c" d="M1038.242-103.83a3.037 3.037 0 0 0 .21-.26 3.428 3.428 0 0 0 .429-1.743v-16.48a3.41 3.41 0 0 0-.454-1.778c-.052-.084-.128-.15-.186-.228l-17.925 10.245z"/>
      <path fill="#004482" d="m1038.242-103.83-17.926-10.244-17.926 10.244a3.478 3.478 0 0 0 1.155 1.028c2.937 1.63 12.791 7.039 14.76 8.151a3.774 3.774 0 0 0 3.947.037q7.414-4.1 14.836-8.19a3.471 3.471 0 0 0 1.154-1.026z"/>
      <g fill="#fff">
        <path d="M1025.459-111.188a5.887 5.887 0 1 1-.039-5.839l5.164-2.961a11.87 11.87 0 0 0-22.125 5.914 11.737 11.737 0 0 0 1.572 5.881 11.884 11.884 0 0 0 20.586-.024l-5.158-2.971"/>
        <path d="M1027.886-113.415h1.322v1.314h1.322v-1.314h1.323v-1.319h-1.323v-1.316h-1.322v1.316h-1.322zM1032.845-113.415h1.323v1.314h1.323v-1.314h1.323v-1.319h-1.323v-1.316h-1.323v1.316h-1.323z"/>
      </g>
    </g>
    <g stroke-width="9.502">
      <path fill="#f8981d" d="M1121.336-114.919c1.894 2.21-.526 4.21-.526 4.21s4.946-2.526 2.63-5.683-3.683-4.42 5.052-9.472c0-.105-13.786 3.368-7.156 10.945m2.105-19.153s4.21 4.21-4 10.524c-6.524 5.156-1.473 8.103 0 11.47-3.788-3.472-6.63-6.419-4.735-9.26 2.841-4.21 10.418-6.21 8.735-12.734"/>
      <path fill="#5382a1" d="M1114.18-103.132s-1.58.842 1.052 1.158 4.84.316 8.314-.316a14.418 14.418 0 0 0 2.21 1.053c-7.788 3.367-17.786-.106-11.577-1.895m-.947-4.42s-1.684 1.263.947 1.579 6.104.42 10.735-.526a4.736 4.736 0 0 0 1.684 1.052c-9.577 2.736-20.206.21-13.366-2.105m18.417 7.683s1.158.947-1.263 1.684c-4.525 1.368-18.838 1.789-22.837.105-1.473-.632 1.579-1.79 3.473-1.79-1.789-1.052-10.313 2.21-4.42 3.158 16.102 2.526 29.257-1.263 25.047-3.157m-16.733-12.208s-7.261 1.684-2.63 2.315c1.999.316 5.998.21 9.681-.105s5.999-.842 5.999-.842a12.84 12.84 0 0 0-1.79.947c-7.366 1.894-21.679 1.053-17.574-.947s6.314-1.368 6.314-1.368m13.05 7.261c7.682-3.893 4.104-8.419.737-6.945 3.788-3.158 10.629 3.788-.948 7.156v-.21m-12.102 10.629c7.261.42 18.312-.21 18.522-3.684 0 0-.526 1.263-5.999 2.316s-13.786 1.052-18.311.315c.105 0 1.052.737 5.788 1.053"/>
    </g>
    <g stroke-width="12.8" transform="matrix(.07813 0 0 .07813 896.05 -134.08)">
      <rect width="512" height="512" fill="#3178c6" rx="51.2" ry="51.2"/>
      <path fill="#fff" d="M233 284h64v-41H118v41h64v183h51zm84 173c8.1 4.2 18 7.3 29 9.4s23 3.1 35 3.1 23-1.1 34-3.4 20-6.1 28-11c8.1-5.3 15-12 19-21s7.1-19 7.1-32c0-9.1-1.4-17-4.1-24s-6.6-13-12-18c-5.1-5.3-11-10-18-14s-15-8.2-24-12c-6.6-2.7-12-5.3-18-7.9-5.2-2.6-9.7-5.2-13-7.8-3.7-2.7-6.5-5.5-8.5-8.4-2-3-3-6.3-3-10 0-3.4.89-6.5 2.7-9.3s4.3-5.1 7.5-7.1 7.2-3.5 12-4.6c4.7-1.1 9.9-1.6 16-1.6 4.2 0 8.6.31 13 .94 4.6.63 9.3 1.6 14 2.9s9.3 2.9 14 4.9c4.4 2 8.5 4.3 12 6.9v-47c-7.6-2.9-16-5.1-25-6.5s-19-2.1-31-2.1-23 1.3-34 3.8-20 6.5-28 12c-8.1 5.4-14 12-19 21-4.7 8.4-7 18-7 30 0 15 4.3 28 13 38 8.6 11 22 19 39 27 6.9 2.8 13 5.6 19 8.3s11 5.5 15 8.4c4.3 2.9 7.7 6.1 10 9.5 2.5 3.4 3.8 7.4 3.8 12 0 3.2-.78 6.2-2.3 9s-3.9 5.2-7.1 7.2-7.1 3.6-12 4.8c-4.7 1.1-10 1.7-17 1.7-11 0-22-1.9-32-5.7-11-3.8-21-9.5-28.1-15.44z"/>
    </g>
  </g>
</svg>