<svg xmlns="http://www.w3.org/2000/svg" xml:space="preserve" viewBox="0 0 24 24">
   <rect width="24" height="24" fill="#092e20" rx="2.625"></rect>
   <path
      fill="#fffffd"
      d="M17.473 8.831v6.209c0 2.14-.157 3.165-.626 4.052-.435.852-1.009 1.391-2.191 1.983l-2.488-1.183c1.183-.556 1.757-1.043 2.122-1.791.383-.766.505-1.653.505-3.983V8.83zm-4.26-4.136v12.397c-1.375.26-2.383.365-3.48.365-3.269 0-4.973-1.478-4.973-4.313 0-2.73 1.809-4.505 4.609-4.505.434 0 .765.035 1.165.14V4.695zM9.63 10.796c-1.357 0-2.14.835-2.14 2.296 0 1.426.748 2.209 2.122 2.209.296 0 .54-.018.922-.07v-4.296a2.66 2.66 0 0 0-.905-.139zm7.843-6.087v2.748h-2.678V4.71z"
   ></path>
</svg>
