<svg xmlns="http://www.w3.org/2000/svg" xml:space="preserve" viewBox="0 0 32 32">
   <g fill="#e10098">
      <path d="m4.782 22.747 11.45-19.833 1.028.593L5.81 23.34z"></path>
      <path d="M4.545 21.162h22.902v1.187H4.545z"></path>
      <path
         d="m4.998 21.829.594-1.028 11.455 6.613-.594 1.028zM14.95 4.591l.594-1.028 11.455 6.614-.594 1.028z"
      ></path>
      <path d="M5.001 10.174 16.456 3.56l.594 1.028-11.455 6.614z"></path>
      <path
         d="m14.743 3.508 1.028-.594 11.45 19.833-1.027.593zM5.454 9.386h1.187v13.228H5.454z"
      ></path>
      <path d="M25.36 9.386h1.187v13.228H25.36z"></path>
      <path d="m15.733 27.042 9.963-5.752.519.898-9.963 5.752z"></path>
      <path
         d="M28.12 23a2.5 2.5 0 1 1-.915-3.411A2.5 2.5 0 0 1 28.12 23M8.2 11.5a2.5 2.5 0 1 1-.915-3.411A2.5 2.5 0 0 1 8.2 11.5M3.88 23a2.5 2.5 0 1 1 3.411.915A2.5 2.5 0 0 1 3.88 23M23.8 11.5a2.5 2.5 0 1 1 3.411.915A2.5 2.5 0 0 1 23.8 11.5M16 30a2.5 2.5 0 1 1 2.5-2.5A2.493 2.493 0 0 1 16 30M16 6.991a2.5 2.5 0 1 1 2.5-2.5 2.493 2.493 0 0 1-2.5 2.5"
      ></path>
   </g>
</svg>
