<svg xmlns="http://www.w3.org/2000/svg" xml:space="preserve" viewBox="0 0 64 64">
   <circle cx="32" cy="32" r="32" fill="#13aa52"></circle>
   <path
      fill="#fff"
      d="M40.554 28.09c-2.021-8.92-6.798-11.854-7.313-12.974-.562-.79-1.132-2.197-1.132-2.197-.01-.024-.024-.066-.042-.106-.058.79-.088 1.095-.835 1.893-1.158.905-7.097 5.888-7.58 16.023-.45 9.452 6.828 15.085 7.813 15.803l.111.08v-.008c.007.048.313 2.25.528 4.584h.771a45.418 45.418 0 0 1 .813-4.908l.062-.04a12.78 12.78 0 0 0 1.257-1.029l.045-.04c2.093-1.933 5.855-6.405 5.818-13.533a21.692 21.692 0 0 0-.316-3.548zm-8.532 13.105s0-13.258.438-13.255c.34 0 .783 17.101.783 17.101-.608-.073-1.22-2.814-1.22-3.846z"
   ></path>
</svg>
