<svg xmlns="http://www.w3.org/2000/svg" xml:space="preserve" viewBox="0 0 24 24" fill="black">
   <defs>
      <clipPath id="a">
         <path class="text-white" d="M0 0h24v24H0z"></path>
      </clipPath>
   </defs>
   <g clip-path="url(#a)">
      <path
         d="M11.214.006c-.052.005-.216.022-.364.033C7.442.347 4.25 2.186 2.226 5.013a11.88 11.88 0 0 0-2.118 5.243c-.096.66-.108.854-.108 1.748s.012 1.089.108 1.748c.652 4.507 3.859 8.293 8.209 9.696.778.251 1.6.422 2.533.526.364.04 1.936.04 2.3 0 1.611-.179 2.977-.577 4.323-1.265.207-.105.246-.134.218-.157-.018-.014-.898-1.194-1.954-2.62l-1.919-2.593-2.405-3.559a342.326 342.326 0 0 0-2.42-3.556c-.01-.003-.02 1.578-.024 3.51-.007 3.38-.01 3.516-.052 3.596a.426.426 0 0 1-.206.213c-.075.038-.141.045-.495.045H7.81l-.108-.068a.44.44 0 0 1-.157-.172l-.05-.105.005-4.704.007-4.706.073-.092a.644.644 0 0 1 .174-.143c.096-.047.133-.051.54-.051.478 0 .558.018.682.154.035.038 1.337 2 2.895 4.362l4.734 7.172 1.9 2.878.097-.063a12.318 12.318 0 0 0 2.465-2.163 11.947 11.947 0 0 0 2.825-6.135c.096-.66.108-.854.108-1.748s-.012-1.088-.108-1.748C23.24 5.75 20.032 1.963 15.683.56a12.6 12.6 0 0 0-2.498-.523c-.226-.024-1.776-.05-1.971-.03zm4.913 7.26a.473.473 0 0 1 .237.276c.018.061.023 1.365.018 4.305l-.007 4.218-.743-1.14-.747-1.14v-3.066c0-1.983.01-3.097.024-3.151a.478.478 0 0 1 .232-.296c.096-.05.132-.054.5-.054.347 0 .408.005.486.047z"
      ></path>
   </g>
</svg>
