<svg xmlns="http://www.w3.org/2000/svg" xml:space="preserve" viewBox="0 0 24 24">
   <path
      fill="#f89939"
      d="M18.409 16.527c2.93-2.931 3.418-7.196 1.088-9.526S12.902 5.158 9.97 8.089c-2.931 2.93-2.083 8.53-1.088 9.526.804.804 6.594 1.842 9.525-1.088z"
   ></path>
   <path
      fill="#3499cd"
      d="M6.382 12.291c-1.7-1.7-4.175-1.983-5.528-.631-1.351 1.352-1.069 3.827.632 5.527 1.7 1.701 4.95 1.209 5.527.631.467-.466 1.07-3.826-.631-5.527z"
   ></path>
   <g fill="#010101">
      <path
         d="M12.248 15.808c-.3.277-.564.481-.79.612a1.295 1.295 0 0 1-.648.197.693.693 0 0 1-.572-.275c-.145-.183-.217-.43-.217-.739 0-.464.1-1.021.302-1.67.2-.65.445-1.25.732-1.797l.842-.312a.21.21 0 0 1 .06-.013c.064 0 .117.047.157.14.041.095.062.221.062.38 0 .451-.104.888-.312 1.31-.208.422-.533.873-.975 1.352a7.36 7.36 0 0 0-.026.474c0 .192.035.345.106.457.07.113.165.17.282.17.12 0 .246-.043.381-.13.135-.086.34-.265.616-.537v.381zm-1.269-1.295c.28-.312.508-.662.683-1.05.174-.387.261-.72.261-.999a.456.456 0 0 0-.036-.197c-.024-.05-.055-.075-.093-.075-.081 0-.2.204-.356.61-.156.408-.309.978-.459 1.71z"
      ></path>
      <path
         d="M14.729 15.808c-.28.277-.533.481-.756.612-.223.132-.47.197-.74.197-.3 0-.542-.096-.727-.288-.184-.192-.276-.445-.276-.76 0-.467.162-.891.487-1.27.325-.38.685-.569 1.08-.569.206 0 .37.053.494.16a.524.524 0 0 1 .186.417c0 .458-.486.829-1.458 1.114.088.43.319.646.692.646.146 0 .285-.039.418-.117.133-.079.332-.253.6-.523v.381zm-1.737-.613c.565-.159.848-.453.848-.881 0-.212-.077-.318-.232-.318-.146 0-.285.11-.417.333-.133.222-.2.51-.2.866z"
      ></path>
      <path
         d="M18.268 15.808c-.353.336-.606.555-.759.657a.794.794 0 0 1-.437.152c-.35 0-.514-.308-.494-.924-.221.315-.425.549-.612.7a.913.913 0 0 1-.578.224c-.195 0-.36-.09-.496-.273s-.204-.406-.204-.671c0-.332.091-.648.274-.948.182-.3.416-.544.7-.73s.538-.278.756-.278c.277 0 .47.127.58.381l.678-.374h.186l-.293.97c-.15.49-.225.824-.225 1.005 0 .19.067.285.202.285.086 0 .18-.045.285-.137s.25-.232.437-.42v.381zm-2.426.183c.22 0 .43-.188.625-.565.196-.377.293-.725.293-1.043a.457.457 0 0 0-.083-.29.269.269 0 0 0-.222-.104c-.22 0-.43.188-.628.563-.197.376-.297.722-.297 1.038 0 .12.03.216.088.29s.133.11.224.11z"
      ></path>
      <path
         d="M20.744 15.808c-.554.544-.982.816-1.283.816a.425.425 0 0 1-.341-.17.649.649 0 0 1-.14-.423c0-.312.168-.73.501-1.253a1.848 1.848 0 0 1-.537.175c-.143.266-.369.55-.676.855h-.076v-.298c.172-.179.328-.371.467-.577-.19-.084-.285-.208-.285-.374 0-.17.058-.352.174-.546.116-.193.276-.29.48-.29.172 0 .258.089.258.266 0 .139-.05.338-.15.596.367-.04.688-.32.962-.842l.301-.013-.308.849c-.128.358-.21.602-.248.73s-.057.244-.057.344c0 .093.022.167.065.222a.209.209 0 0 0 .174.083.38.38 0 0 0 .229-.081c.073-.055.236-.204.49-.45v.381z"
      ></path>
      <path
         d="M24 15.808c-.51.54-.948.81-1.313.81a.452.452 0 0 1-.358-.156.612.612 0 0 1-.136-.418c0-.236.098-.598.292-1.084.104-.26.156-.427.156-.497s-.028-.106-.083-.106a.26.26 0 0 0-.122.046c-.047.031-.101.074-.163.13a5.283 5.283 0 0 0-.378.398l-.186.215a.684.684 0 0 0-.152.315c-.033.187-.055.36-.066.517-.007.117-.01.275-.01.474l-.733.172a9.14 9.14 0 0 1-.036-.666c0-.356.041-.693.124-1.011a6.54 6.54 0 0 1 .4-1.074l.808-.156c-.17.458-.282.818-.335 1.08.363-.404.65-.684.863-.84.213-.156.402-.233.568-.233a.36.36 0 0 1 .28.127.464.464 0 0 1 .113.32c0 .211-.095.56-.284 1.047-.13.333-.196.55-.196.65 0 .133.054.2.163.2.161 0 .423-.214.784-.64z"
      ></path>
   </g>
   <text
      x="13.27"
      y="12.62"
      fill="#fff"
      stroke-width=".087"
      font-size="1.997"
      style="line-height: 0%"
   >
      scikit
   </text>
</svg>
