<svg xmlns="http://www.w3.org/2000/svg" xml:space="preserve" viewBox="0 0 64 64">
   <path
      fill="#ff3e00"
      d="M55.194 8.466C49.284-.047 37.517-2.54 29.058 2.827l-14.912 9.544c-4.067 2.548-6.887 6.724-7.7 11.441-.705 3.959-.108 8.025 1.79 11.55a16.37 16.37 0 0 0-2.55 6.399 18.245 18.245 0 0 0 3.092 13.773c5.964 8.513 17.677 11.007 26.136 5.64l14.912-9.49c4.067-2.549 6.887-6.724 7.7-11.442.705-3.958.108-8.025-1.79-11.55a16.37 16.37 0 0 0 2.55-6.398 17.866 17.866 0 0 0-3.092-13.828"
   ></path>
   <path
      fill="#fff"
      d="M27.594 56.347a11.82 11.82 0 0 1-12.689-4.717c-1.735-2.386-2.386-5.369-1.898-8.297.109-.488.217-.922.326-1.41l.27-.867.76.542a19.779 19.779 0 0 0 5.856 2.928l.542.163-.054.542a3.63 3.63 0 0 0 .597 2.223c.867 1.247 2.386 1.844 3.85 1.464.325-.108.65-.217.921-.38l14.858-9.489c.76-.488 1.247-1.193 1.41-2.06s-.054-1.79-.542-2.495c-.868-1.247-2.386-1.789-3.85-1.41-.326.11-.651.218-.922.38l-5.694 3.633A10.087 10.087 0 0 1 28.3 38.4 11.82 11.82 0 0 1 15.61 33.68c-1.681-2.386-2.386-5.368-1.844-8.296.488-2.82 2.224-5.369 4.664-6.887l14.912-9.49c.921-.596 1.952-1.03 3.036-1.355a11.82 11.82 0 0 1 12.689 4.718c1.735 2.386 2.386 5.368 1.898 8.296a13.58 13.58 0 0 1-.38 1.41l-.271.868-.76-.543a19.779 19.779 0 0 0-5.855-2.928l-.543-.163.055-.542a3.63 3.63 0 0 0-.597-2.223c-.868-1.247-2.386-1.79-3.85-1.41-.325.109-.65.217-.922.38l-14.857 9.49c-.76.487-1.248 1.192-1.41 2.06s.054 1.79.542 2.494c.868 1.247 2.386 1.79 3.85 1.41.325-.109.65-.217.922-.38l5.693-3.633c.922-.596 1.953-1.03 3.037-1.355a11.82 11.82 0 0 1 12.689 4.717c1.735 2.386 2.386 5.368 1.898 8.297-.488 2.82-2.224 5.368-4.664 6.886l-14.912 9.49c-.921.596-1.952 1.03-3.036 1.355"
   ></path>
</svg>
