<svg xmlns="http://www.w3.org/2000/svg" xml:space="preserve" viewBox="0 0 24 24">
   <path
      fill="#e55b2d"
      d="M13.598 3.685v3.693l6.395 3.692V7.378zM.808 7.378v3.692l3.198 1.846V9.224zM10.4 9.224 7.203 11.07v11.076l3.197 1.846v-7.384l3.198 1.846v-3.692L10.4 12.916z"
   ></path>
   <path
      fill="#ed8e24"
      d="M13.598 3.685 4.006 9.224v3.692L10.4 9.224v3.692l3.198-1.846zm9.593 1.847-3.198 1.846v3.692l3.198-1.846zm-6.395 7.384-3.198 1.846v3.692l3.198-1.846zm-3.198 5.539-3.197-1.847v7.385l3.197-1.846z"
   ></path>
   <path
      fill="#f8bf3c"
      d="M13.598-.005.808 7.379l3.198 1.846 9.592-5.538 6.395 3.692 3.198-1.846zm0 11.076L10.4 12.917l3.198 1.846 3.198-1.846z"
   ></path>
</svg>
