<svg xmlns="http://www.w3.org/2000/svg" xml:space="preserve" viewBox="0 0 24 24">
   <rect width="24" height="24" fill="#3178c6" rx="15%"></rect>
   <path
      fill="#fff"
      d="M8.005 21.821h2.163v-8.55h2.994v-1.784H5.019v1.783h2.986zm9.827.179C20.438 22 22 20.74 22 18.756v-.007c0-1.626-.974-2.507-3.137-2.936l-1.096-.222c-1.189-.237-1.719-.616-1.719-1.268v-.007c0-.738.666-1.246 1.776-1.254 1.067 0 1.812.495 1.92 1.304l.007.086h2.04l-.006-.136c-.1-1.812-1.569-3.008-3.96-3.008-2.292 0-3.94 1.246-3.94 3.137v.007c0 1.554 1.032 2.528 3.073 2.936l1.088.215c1.282.265 1.79.616 1.79 1.318v.007c0 .788-.751 1.31-1.947 1.31-1.182 0-2.034-.5-2.17-1.303l-.014-.079h-2.041l.007.115c.122 1.905 1.704 3.03 4.16 3.03z"
   ></path>
</svg>
